<?xml version="1.0" encoding="utf-8" standalone="no"?>
<!DOCTYPE svg PUBLIC "-//W3C//DTD SVG 1.1//EN"
  "http://www.w3.org/Graphics/SVG/1.1/DTD/svg11.dtd">
<svg xmlns:xlink="http://www.w3.org/1999/xlink" width="576pt" height="144pt" viewBox="0 0 576 144" xmlns="http://www.w3.org/2000/svg" version="1.1">
 <metadata>
  <rdf:RDF xmlns:dc="http://purl.org/dc/elements/1.1/" xmlns:cc="http://creativecommons.org/ns#" xmlns:rdf="http://www.w3.org/1999/02/22-rdf-syntax-ns#">
   <cc:Work>
    <dc:type rdf:resource="http://purl.org/dc/dcmitype/StillImage"/>
    <dc:date>2024-03-24T16:50:42.189907</dc:date>
    <dc:format>image/svg+xml</dc:format>
    <dc:creator>
     <cc:Agent>
      <dc:title>Matplotlib v3.7.1, https://matplotlib.org/</dc:title>
     </cc:Agent>
    </dc:creator>
   </cc:Work>
  </rdf:RDF>
 </metadata>
 <defs>
  <style type="text/css">*{stroke-linejoin: round; stroke-linecap: butt}</style>
 </defs>
 <g id="figure_1">
  <g id="patch_1">
   <path d="M 0 144 
L 576 144 
L 576 0 
L 0 0 
z
" style="fill: #ffffff"/>
  </g>
  <g id="axes_1">
   <g id="patch_2">
    <path d="M 55.73 94.84 
L 287.93 94.84 
L 287.93 41.856 
L 55.73 41.856 
z
" style="fill: #ffffff"/>
   </g>
   <g id="PolyCollection_1">
    <defs>
     <path id="m4b902d8e79" d="M 178.43369 -51.568364 
L 165.22631 -51.568364 
L 163.714039 -52.054902 
L 161.943007 -52.54144 
L 159.890835 -53.027978 
L 157.538285 -53.514516 
L 154.870544 -54.001054 
L 151.87856 -54.487592 
L 148.560325 -54.97413 
L 144.92205 -55.460669 
L 140.979139 -55.947207 
L 136.756881 -56.433745 
L 132.290783 -56.920283 
L 127.626478 -57.406821 
L 122.819174 -57.893359 
L 117.932608 -58.379897 
L 113.037532 -58.866435 
L 108.209768 -59.352973 
L 103.527898 -59.839511 
L 99.070701 -60.32605 
L 94.914459 -60.812588 
L 91.130269 -61.299126 
L 87.781515 -61.785664 
L 84.921639 -62.272202 
L 82.592338 -62.75874 
L 80.8223 -63.245278 
L 79.626539 -63.731816 
L 79.006368 -64.218354 
L 78.95 -64.704893 
L 79.433725 -65.191431 
L 80.423578 -65.677969 
L 81.877369 -66.164507 
L 83.746952 -66.651045 
L 85.980565 -67.137583 
L 88.525098 -67.624121 
L 91.328158 -68.110659 
L 94.339804 -68.597197 
L 97.513879 -69.083736 
L 100.808884 -69.570274 
L 104.18839 -70.056812 
L 107.620997 -70.54335 
L 111.079921 -71.029888 
L 114.542261 -71.516426 
L 117.988068 -72.002964 
L 121.399295 -72.489502 
L 124.758747 -72.97604 
L 128.049107 -73.462579 
L 131.252123 -73.949117 
L 134.347991 -74.435655 
L 137.314988 -74.922193 
L 140.129337 -75.408731 
L 142.765327 -75.895269 
L 145.195633 -76.381807 
L 147.391835 -76.868345 
L 149.325084 -77.354883 
L 150.966883 -77.841421 
L 152.289963 -78.32796 
L 153.269218 -78.814498 
L 153.882686 -79.301036 
L 154.112548 -79.787574 
L 153.946145 -80.274112 
L 153.376971 -80.76065 
L 152.405627 -81.247188 
L 151.040696 -81.733726 
L 149.29949 -82.220264 
L 147.208616 -82.706803 
L 144.804293 -83.193341 
L 142.132364 -83.679879 
L 139.247935 -84.166417 
L 136.214604 -84.652955 
L 133.103244 -85.139493 
L 129.990345 -85.626031 
L 126.955942 -86.112569 
L 124.08119 -86.599107 
L 121.445687 -87.085646 
L 119.124657 -87.572184 
L 117.186152 -88.058722 
L 115.688418 -88.54526 
L 114.67758 -89.031798 
L 114.185802 -89.518336 
L 114.23002 -90.004874 
L 114.811354 -90.491412 
L 115.915219 -90.97795 
L 117.512158 -91.464489 
L 119.559319 -91.951027 
L 122.002504 -92.437565 
L 124.778657 -92.924103 
L 127.818644 -93.410641 
L 131.050148 -93.897179 
L 134.400541 -94.383717 
L 137.799551 -94.870255 
L 141.181626 -95.356793 
L 144.487865 -95.843331 
L 147.667473 -96.32987 
L 150.678702 -96.816408 
L 153.489284 -97.302946 
L 156.076393 -97.789484 
L 158.426193 -98.276022 
L 160.533063 -98.76256 
L 162.39857 -99.249098 
L 164.030286 -99.735636 
L 179.629714 -99.735636 
L 179.629714 -99.735636 
L 181.26143 -99.249098 
L 183.126937 -98.76256 
L 185.233807 -98.276022 
L 187.583607 -97.789484 
L 190.170716 -97.302946 
L 192.981298 -96.816408 
L 195.992527 -96.32987 
L 199.172135 -95.843331 
L 202.478374 -95.356793 
L 205.860449 -94.870255 
L 209.259459 -94.383717 
L 212.609852 -93.897179 
L 215.841356 -93.410641 
L 218.881343 -92.924103 
L 221.657496 -92.437565 
L 224.100681 -91.951027 
L 226.147842 -91.464489 
L 227.744781 -90.97795 
L 228.848646 -90.491412 
L 229.42998 -90.004874 
L 229.474198 -89.518336 
L 228.98242 -89.031798 
L 227.971582 -88.54526 
L 226.473848 -88.058722 
L 224.535343 -87.572184 
L 222.214313 -87.085646 
L 219.57881 -86.599107 
L 216.704058 -86.112569 
L 213.669655 -85.626031 
L 210.556756 -85.139493 
L 207.445396 -84.652955 
L 204.412065 -84.166417 
L 201.527636 -83.679879 
L 198.855707 -83.193341 
L 196.451384 -82.706803 
L 194.36051 -82.220264 
L 192.619304 -81.733726 
L 191.254373 -81.247188 
L 190.283029 -80.76065 
L 189.713855 -80.274112 
L 189.547452 -79.787574 
L 189.777314 -79.301036 
L 190.390782 -78.814498 
L 191.370037 -78.32796 
L 192.693117 -77.841421 
L 194.334916 -77.354883 
L 196.268165 -76.868345 
L 198.464367 -76.381807 
L 200.894673 -75.895269 
L 203.530663 -75.408731 
L 206.345012 -74.922193 
L 209.312009 -74.435655 
L 212.407877 -73.949117 
L 215.610893 -73.462579 
L 218.901253 -72.97604 
L 222.260705 -72.489502 
L 225.671932 -72.002964 
L 229.117739 -71.516426 
L 232.580079 -71.029888 
L 236.039003 -70.54335 
L 239.47161 -70.056812 
L 242.851116 -69.570274 
L 246.146121 -69.083736 
L 249.320196 -68.597197 
L 252.331842 -68.110659 
L 255.134902 -67.624121 
L 257.679435 -67.137583 
L 259.913048 -66.651045 
L 261.782631 -66.164507 
L 263.236422 -65.677969 
L 264.226275 -65.191431 
L 264.71 -64.704893 
L 264.653632 -64.218354 
L 264.033461 -63.731816 
L 262.8377 -63.245278 
L 261.067662 -62.75874 
L 258.738361 -62.272202 
L 255.878485 -61.785664 
L 252.529731 -61.299126 
L 248.745541 -60.812588 
L 244.589299 -60.32605 
L 240.132102 -59.839511 
L 235.450232 -59.352973 
L 230.622468 -58.866435 
L 225.727392 -58.379897 
L 220.840826 -57.893359 
L 216.033522 -57.406821 
L 211.369217 -56.920283 
L 206.903119 -56.433745 
L 202.680861 -55.947207 
L 198.73795 -55.460669 
L 195.099675 -54.97413 
L 191.78144 -54.487592 
L 188.789456 -54.001054 
L 186.121715 -53.514516 
L 183.769165 -53.027978 
L 181.716993 -52.54144 
L 179.945961 -52.054902 
L 178.43369 -51.568364 
z
" style="stroke: #646464; stroke-width: 1.5"/>
    </defs>
    <g clip-path="url(#pc0a1c7b615)">
     <use xlink:href="#m4b902d8e79" x="0" y="144" style="fill: #e98966; stroke: #646464; stroke-width: 1.5"/>
    </g>
   </g>
   <g id="PathCollection_1">
    <defs>
     <path id="mf09fe4f3ef" d="M 0 1.5 
C 0.397805 1.5 0.77937 1.341951 1.06066 1.06066 
C 1.341951 0.77937 1.5 0.397805 1.5 0 
C 1.5 -0.397805 1.341951 -0.77937 1.06066 -1.06066 
C 0.77937 -1.341951 0.397805 -1.5 0 -1.5 
C -0.397805 -1.5 -0.77937 -1.341951 -1.06066 -1.06066 
C -1.341951 -0.77937 -1.5 -0.397805 -1.5 0 
C -1.5 0.397805 -1.341951 0.77937 -1.06066 1.06066 
C -0.77937 1.341951 -0.397805 1.5 0 1.5 
z
" style="stroke: #646464"/>
    </defs>
    <g clip-path="url(#pc0a1c7b615)">
     <use xlink:href="#mf09fe4f3ef" x="171.83" y="82.435925" style="fill: #646464; stroke: #646464"/>
     <use xlink:href="#mf09fe4f3ef" x="171.83" y="71.869981" style="fill: #646464; stroke: #646464"/>
     <use xlink:href="#mf09fe4f3ef" x="171.83" y="77.857349" style="fill: #646464; stroke: #646464"/>
     <use xlink:href="#mf09fe4f3ef" x="171.83" y="54.260075" style="fill: #646464; stroke: #646464"/>
     <use xlink:href="#mf09fe4f3ef" x="171.83" y="82.435925" style="fill: #646464; stroke: #646464"/>
     <use xlink:href="#mf09fe4f3ef" x="171.83" y="54.260075" style="fill: #646464; stroke: #646464"/>
     <use xlink:href="#mf09fe4f3ef" x="171.83" y="77.857349" style="fill: #646464; stroke: #646464"/>
     <use xlink:href="#mf09fe4f3ef" x="171.83" y="82.435925" style="fill: #646464; stroke: #646464"/>
     <use xlink:href="#mf09fe4f3ef" x="171.83" y="71.869981" style="fill: #646464; stroke: #646464"/>
     <use xlink:href="#mf09fe4f3ef" x="171.83" y="77.857349" style="fill: #646464; stroke: #646464"/>
     <use xlink:href="#mf09fe4f3ef" x="171.83" y="80.674934" style="fill: #646464; stroke: #646464"/>
     <use xlink:href="#mf09fe4f3ef" x="171.83" y="80.674934" style="fill: #646464; stroke: #646464"/>
     <use xlink:href="#mf09fe4f3ef" x="171.83" y="77.857349" style="fill: #646464; stroke: #646464"/>
     <use xlink:href="#mf09fe4f3ef" x="171.83" y="80.674934" style="fill: #646464; stroke: #646464"/>
     <use xlink:href="#mf09fe4f3ef" x="171.83" y="71.869981" style="fill: #646464; stroke: #646464"/>
     <use xlink:href="#mf09fe4f3ef" x="171.83" y="54.260075" style="fill: #646464; stroke: #646464"/>
     <use xlink:href="#mf09fe4f3ef" x="171.83" y="80.674934" style="fill: #646464; stroke: #646464"/>
     <use xlink:href="#mf09fe4f3ef" x="171.83" y="80.674934" style="fill: #646464; stroke: #646464"/>
     <use xlink:href="#mf09fe4f3ef" x="171.83" y="82.435925" style="fill: #646464; stroke: #646464"/>
     <use xlink:href="#mf09fe4f3ef" x="171.83" y="82.435925" style="fill: #646464; stroke: #646464"/>
     <use xlink:href="#mf09fe4f3ef" x="171.83" y="77.857349" style="fill: #646464; stroke: #646464"/>
     <use xlink:href="#mf09fe4f3ef" x="171.83" y="71.869981" style="fill: #646464; stroke: #646464"/>
     <use xlink:href="#mf09fe4f3ef" x="171.83" y="80.674934" style="fill: #646464; stroke: #646464"/>
     <use xlink:href="#mf09fe4f3ef" x="171.83" y="54.260075" style="fill: #646464; stroke: #646464"/>
     <use xlink:href="#mf09fe4f3ef" x="171.83" y="77.857349" style="fill: #646464; stroke: #646464"/>
     <use xlink:href="#mf09fe4f3ef" x="171.83" y="71.869981" style="fill: #646464; stroke: #646464"/>
     <use xlink:href="#mf09fe4f3ef" x="171.83" y="71.869981" style="fill: #646464; stroke: #646464"/>
     <use xlink:href="#mf09fe4f3ef" x="171.83" y="54.260075" style="fill: #646464; stroke: #646464"/>
     <use xlink:href="#mf09fe4f3ef" x="171.83" y="54.260075" style="fill: #646464; stroke: #646464"/>
     <use xlink:href="#mf09fe4f3ef" x="171.83" y="80.674934" style="fill: #646464; stroke: #646464"/>
     <use xlink:href="#mf09fe4f3ef" x="171.83" y="80.674934" style="fill: #646464; stroke: #646464"/>
     <use xlink:href="#mf09fe4f3ef" x="171.83" y="54.260075" style="fill: #646464; stroke: #646464"/>
     <use xlink:href="#mf09fe4f3ef" x="171.83" y="54.260075" style="fill: #646464; stroke: #646464"/>
     <use xlink:href="#mf09fe4f3ef" x="171.83" y="82.435925" style="fill: #646464; stroke: #646464"/>
     <use xlink:href="#mf09fe4f3ef" x="171.83" y="71.869981" style="fill: #646464; stroke: #646464"/>
     <use xlink:href="#mf09fe4f3ef" x="171.83" y="77.857349" style="fill: #646464; stroke: #646464"/>
     <use xlink:href="#mf09fe4f3ef" x="171.83" y="54.260075" style="fill: #646464; stroke: #646464"/>
     <use xlink:href="#mf09fe4f3ef" x="171.83" y="82.435925" style="fill: #646464; stroke: #646464"/>
     <use xlink:href="#mf09fe4f3ef" x="171.83" y="80.674934" style="fill: #646464; stroke: #646464"/>
     <use xlink:href="#mf09fe4f3ef" x="171.83" y="82.435925" style="fill: #646464; stroke: #646464"/>
     <use xlink:href="#mf09fe4f3ef" x="171.83" y="80.674934" style="fill: #646464; stroke: #646464"/>
     <use xlink:href="#mf09fe4f3ef" x="171.83" y="77.857349" style="fill: #646464; stroke: #646464"/>
     <use xlink:href="#mf09fe4f3ef" x="171.83" y="71.869981" style="fill: #646464; stroke: #646464"/>
     <use xlink:href="#mf09fe4f3ef" x="171.83" y="71.869981" style="fill: #646464; stroke: #646464"/>
     <use xlink:href="#mf09fe4f3ef" x="171.83" y="82.435925" style="fill: #646464; stroke: #646464"/>
     <use xlink:href="#mf09fe4f3ef" x="171.83" y="82.435925" style="fill: #646464; stroke: #646464"/>
     <use xlink:href="#mf09fe4f3ef" x="171.83" y="82.435925" style="fill: #646464; stroke: #646464"/>
     <use xlink:href="#mf09fe4f3ef" x="171.83" y="54.260075" style="fill: #646464; stroke: #646464"/>
     <use xlink:href="#mf09fe4f3ef" x="171.83" y="77.857349" style="fill: #646464; stroke: #646464"/>
     <use xlink:href="#mf09fe4f3ef" x="171.83" y="54.260075" style="fill: #646464; stroke: #646464"/>
     <use xlink:href="#mf09fe4f3ef" x="171.83" y="82.435925" style="fill: #646464; stroke: #646464"/>
     <use xlink:href="#mf09fe4f3ef" x="171.83" y="80.674934" style="fill: #646464; stroke: #646464"/>
     <use xlink:href="#mf09fe4f3ef" x="171.83" y="71.869981" style="fill: #646464; stroke: #646464"/>
     <use xlink:href="#mf09fe4f3ef" x="171.83" y="54.260075" style="fill: #646464; stroke: #646464"/>
     <use xlink:href="#mf09fe4f3ef" x="171.83" y="80.674934" style="fill: #646464; stroke: #646464"/>
     <use xlink:href="#mf09fe4f3ef" x="171.83" y="82.435925" style="fill: #646464; stroke: #646464"/>
     <use xlink:href="#mf09fe4f3ef" x="171.83" y="71.869981" style="fill: #646464; stroke: #646464"/>
     <use xlink:href="#mf09fe4f3ef" x="171.83" y="77.857349" style="fill: #646464; stroke: #646464"/>
     <use xlink:href="#mf09fe4f3ef" x="171.83" y="77.857349" style="fill: #646464; stroke: #646464"/>
     <use xlink:href="#mf09fe4f3ef" x="171.83" y="71.869981" style="fill: #646464; stroke: #646464"/>
     <use xlink:href="#mf09fe4f3ef" x="171.83" y="54.260075" style="fill: #646464; stroke: #646464"/>
     <use xlink:href="#mf09fe4f3ef" x="171.83" y="54.260075" style="fill: #646464; stroke: #646464"/>
     <use xlink:href="#mf09fe4f3ef" x="171.83" y="54.260075" style="fill: #646464; stroke: #646464"/>
     <use xlink:href="#mf09fe4f3ef" x="171.83" y="77.857349" style="fill: #646464; stroke: #646464"/>
     <use xlink:href="#mf09fe4f3ef" x="171.83" y="54.260075" style="fill: #646464; stroke: #646464"/>
     <use xlink:href="#mf09fe4f3ef" x="171.83" y="54.260075" style="fill: #646464; stroke: #646464"/>
     <use xlink:href="#mf09fe4f3ef" x="171.83" y="54.260075" style="fill: #646464; stroke: #646464"/>
     <use xlink:href="#mf09fe4f3ef" x="171.83" y="54.260075" style="fill: #646464; stroke: #646464"/>
     <use xlink:href="#mf09fe4f3ef" x="171.83" y="80.674934" style="fill: #646464; stroke: #646464"/>
     <use xlink:href="#mf09fe4f3ef" x="171.83" y="54.260075" style="fill: #646464; stroke: #646464"/>
     <use xlink:href="#mf09fe4f3ef" x="171.83" y="54.260075" style="fill: #646464; stroke: #646464"/>
     <use xlink:href="#mf09fe4f3ef" x="171.83" y="54.260075" style="fill: #646464; stroke: #646464"/>
     <use xlink:href="#mf09fe4f3ef" x="171.83" y="54.260075" style="fill: #646464; stroke: #646464"/>
     <use xlink:href="#mf09fe4f3ef" x="171.83" y="54.260075" style="fill: #646464; stroke: #646464"/>
    </g>
   </g>
   <g id="matplotlib.axis_1">
    <g id="xtick_1">
     <g id="line2d_1">
      <defs>
       <path id="mf4df095fa2" d="M 0 0 
L 0 3.5 
" style="stroke: #000000; stroke-width: 0.8"/>
      </defs>
      <g>
       <use xlink:href="#mf4df095fa2" x="171.83" y="94.84" style="stroke: #000000; stroke-width: 0.8"/>
      </g>
     </g>
     <g id="text_1">
      <!-- 0 -->
      <g transform="translate(167.937344 111.860938) scale(0.14 -0.14)">
       <defs>
        <path id="ArialMT-30" d="M 266 2259 
Q 266 3072 433 3567 
Q 600 4063 929 4331 
Q 1259 4600 1759 4600 
Q 2128 4600 2406 4451 
Q 2684 4303 2865 4023 
Q 3047 3744 3150 3342 
Q 3253 2941 3253 2259 
Q 3253 1453 3087 958 
Q 2922 463 2592 192 
Q 2263 -78 1759 -78 
Q 1097 -78 719 397 
Q 266 969 266 2259 
z
M 844 2259 
Q 844 1131 1108 757 
Q 1372 384 1759 384 
Q 2147 384 2411 759 
Q 2675 1134 2675 2259 
Q 2675 3391 2411 3762 
Q 2147 4134 1753 4134 
Q 1366 4134 1134 3806 
Q 844 3388 844 2259 
z
" transform="scale(0.015625)"/>
       </defs>
       <use xlink:href="#ArialMT-30"/>
      </g>
     </g>
    </g>
    <g id="text_2">
     <!-- Rat -->
     <g transform="translate(159.38125 130.095937) scale(0.16 -0.16)">
      <defs>
       <path id="ArialMT-52" d="M 503 0 
L 503 4581 
L 2534 4581 
Q 3147 4581 3465 4457 
Q 3784 4334 3975 4021 
Q 4166 3709 4166 3331 
Q 4166 2844 3850 2509 
Q 3534 2175 2875 2084 
Q 3116 1969 3241 1856 
Q 3506 1613 3744 1247 
L 4541 0 
L 3778 0 
L 3172 953 
Q 2906 1366 2734 1584 
Q 2563 1803 2427 1890 
Q 2291 1978 2150 2013 
Q 2047 2034 1813 2034 
L 1109 2034 
L 1109 0 
L 503 0 
z
M 1109 2559 
L 2413 2559 
Q 2828 2559 3062 2645 
Q 3297 2731 3419 2920 
Q 3541 3109 3541 3331 
Q 3541 3656 3305 3865 
Q 3069 4075 2559 4075 
L 1109 4075 
L 1109 2559 
z
" transform="scale(0.015625)"/>
       <path id="ArialMT-61" d="M 2588 409 
Q 2275 144 1986 34 
Q 1697 -75 1366 -75 
Q 819 -75 525 192 
Q 231 459 231 875 
Q 231 1119 342 1320 
Q 453 1522 633 1644 
Q 813 1766 1038 1828 
Q 1203 1872 1538 1913 
Q 2219 1994 2541 2106 
Q 2544 2222 2544 2253 
Q 2544 2597 2384 2738 
Q 2169 2928 1744 2928 
Q 1347 2928 1158 2789 
Q 969 2650 878 2297 
L 328 2372 
Q 403 2725 575 2942 
Q 747 3159 1072 3276 
Q 1397 3394 1825 3394 
Q 2250 3394 2515 3294 
Q 2781 3194 2906 3042 
Q 3031 2891 3081 2659 
Q 3109 2516 3109 2141 
L 3109 1391 
Q 3109 606 3145 398 
Q 3181 191 3288 0 
L 2700 0 
Q 2613 175 2588 409 
z
M 2541 1666 
Q 2234 1541 1622 1453 
Q 1275 1403 1131 1340 
Q 988 1278 909 1158 
Q 831 1038 831 891 
Q 831 666 1001 516 
Q 1172 366 1500 366 
Q 1825 366 2078 508 
Q 2331 650 2450 897 
Q 2541 1088 2541 1459 
L 2541 1666 
z
" transform="scale(0.015625)"/>
       <path id="ArialMT-74" d="M 1650 503 
L 1731 6 
Q 1494 -44 1306 -44 
Q 1000 -44 831 53 
Q 663 150 594 308 
Q 525 466 525 972 
L 525 2881 
L 113 2881 
L 113 3319 
L 525 3319 
L 525 4141 
L 1084 4478 
L 1084 3319 
L 1650 3319 
L 1650 2881 
L 1084 2881 
L 1084 941 
Q 1084 700 1114 631 
Q 1144 563 1211 522 
Q 1278 481 1403 481 
Q 1497 481 1650 503 
z
" transform="scale(0.015625)"/>
      </defs>
      <use xlink:href="#ArialMT-52"/>
      <use xlink:href="#ArialMT-61" x="72.216797"/>
      <use xlink:href="#ArialMT-74" x="127.832031"/>
     </g>
    </g>
   </g>
   <g id="matplotlib.axis_2">
    <g id="ytick_1">
     <g id="line2d_2">
      <defs>
       <path id="m619e3d4fc3" d="M 0 0 
L -3.5 0 
" style="stroke: #000000; stroke-width: 0.8"/>
      </defs>
      <g>
       <use xlink:href="#m619e3d4fc3" x="55.73" y="89.479887" style="stroke: #000000; stroke-width: 0.8"/>
      </g>
     </g>
     <g id="text_3">
      <!-- 0.0 -->
      <g transform="translate(29.27 94.490356) scale(0.14 -0.14)">
       <defs>
        <path id="ArialMT-2e" d="M 581 0 
L 581 641 
L 1222 641 
L 1222 0 
L 581 0 
z
" transform="scale(0.015625)"/>
       </defs>
       <use xlink:href="#ArialMT-30"/>
       <use xlink:href="#ArialMT-2e" x="55.615234"/>
       <use xlink:href="#ArialMT-30" x="83.398438"/>
      </g>
     </g>
    </g>
    <g id="ytick_2">
     <g id="line2d_3">
      <g>
       <use xlink:href="#m619e3d4fc3" x="55.73" y="54.260075" style="stroke: #000000; stroke-width: 0.8"/>
      </g>
     </g>
     <g id="text_4">
      <!-- 0.1 -->
      <g transform="translate(29.27 59.270544) scale(0.14 -0.14)">
       <defs>
        <path id="ArialMT-31" d="M 2384 0 
L 1822 0 
L 1822 3584 
Q 1619 3391 1289 3197 
Q 959 3003 697 2906 
L 697 3450 
Q 1169 3672 1522 3987 
Q 1875 4303 2022 4600 
L 2384 4600 
L 2384 0 
z
" transform="scale(0.015625)"/>
       </defs>
       <use xlink:href="#ArialMT-30"/>
       <use xlink:href="#ArialMT-2e" x="55.615234"/>
       <use xlink:href="#ArialMT-31" x="83.398438"/>
      </g>
     </g>
    </g>
    <g id="text_5">
     <!-- ratio -->
     <g transform="translate(22.09 83.90925) rotate(-90) scale(0.16 -0.16)">
      <defs>
       <path id="ArialMT-72" d="M 416 0 
L 416 3319 
L 922 3319 
L 922 2816 
Q 1116 3169 1280 3281 
Q 1444 3394 1641 3394 
Q 1925 3394 2219 3213 
L 2025 2691 
Q 1819 2813 1613 2813 
Q 1428 2813 1281 2702 
Q 1134 2591 1072 2394 
Q 978 2094 978 1738 
L 978 0 
L 416 0 
z
" transform="scale(0.015625)"/>
       <path id="ArialMT-69" d="M 425 3934 
L 425 4581 
L 988 4581 
L 988 3934 
L 425 3934 
z
M 425 0 
L 425 3319 
L 988 3319 
L 988 0 
L 425 0 
z
" transform="scale(0.015625)"/>
       <path id="ArialMT-6f" d="M 213 1659 
Q 213 2581 725 3025 
Q 1153 3394 1769 3394 
Q 2453 3394 2887 2945 
Q 3322 2497 3322 1706 
Q 3322 1066 3130 698 
Q 2938 331 2570 128 
Q 2203 -75 1769 -75 
Q 1072 -75 642 372 
Q 213 819 213 1659 
z
M 791 1659 
Q 791 1022 1069 705 
Q 1347 388 1769 388 
Q 2188 388 2466 706 
Q 2744 1025 2744 1678 
Q 2744 2294 2464 2611 
Q 2184 2928 1769 2928 
Q 1347 2928 1069 2612 
Q 791 2297 791 1659 
z
" transform="scale(0.015625)"/>
      </defs>
      <use xlink:href="#ArialMT-72"/>
      <use xlink:href="#ArialMT-61" x="33.300781"/>
      <use xlink:href="#ArialMT-74" x="88.916016"/>
      <use xlink:href="#ArialMT-69" x="116.699219"/>
      <use xlink:href="#ArialMT-6f" x="138.916016"/>
     </g>
    </g>
   </g>
   <g id="patch_3">
    <path d="M 55.73 94.84 
L 55.73 41.856 
" style="fill: none; stroke: #000000; stroke-width: 0.8; stroke-linejoin: miter; stroke-linecap: square"/>
   </g>
   <g id="patch_4">
    <path d="M 287.93 94.84 
L 287.93 41.856 
" style="fill: none; stroke: #000000; stroke-width: 0.8; stroke-linejoin: miter; stroke-linecap: square"/>
   </g>
   <g id="patch_5">
    <path d="M 55.73 94.84 
L 287.93 94.84 
" style="fill: none; stroke: #000000; stroke-width: 0.8; stroke-linejoin: miter; stroke-linecap: square"/>
   </g>
   <g id="patch_6">
    <path d="M 55.73 41.856 
L 287.93 41.856 
" style="fill: none; stroke: #000000; stroke-width: 0.8; stroke-linejoin: miter; stroke-linecap: square"/>
   </g>
   <g id="text_6">
    <!-- Violin plot -->
    <g transform="translate(141.602031 21.048375) scale(0.14 -0.14)">
     <defs>
      <path id="ArialMT-56" d="M 1803 0 
L 28 4581 
L 684 4581 
L 1875 1253 
Q 2019 853 2116 503 
Q 2222 878 2363 1253 
L 3600 4581 
L 4219 4581 
L 2425 0 
L 1803 0 
z
" transform="scale(0.015625)"/>
      <path id="ArialMT-6c" d="M 409 0 
L 409 4581 
L 972 4581 
L 972 0 
L 409 0 
z
" transform="scale(0.015625)"/>
      <path id="ArialMT-6e" d="M 422 0 
L 422 3319 
L 928 3319 
L 928 2847 
Q 1294 3394 1984 3394 
Q 2284 3394 2536 3286 
Q 2788 3178 2913 3003 
Q 3038 2828 3088 2588 
Q 3119 2431 3119 2041 
L 3119 0 
L 2556 0 
L 2556 2019 
Q 2556 2363 2490 2533 
Q 2425 2703 2258 2804 
Q 2091 2906 1866 2906 
Q 1506 2906 1245 2678 
Q 984 2450 984 1813 
L 984 0 
L 422 0 
z
" transform="scale(0.015625)"/>
      <path id="ArialMT-20" transform="scale(0.015625)"/>
      <path id="ArialMT-70" d="M 422 -1272 
L 422 3319 
L 934 3319 
L 934 2888 
Q 1116 3141 1344 3267 
Q 1572 3394 1897 3394 
Q 2322 3394 2647 3175 
Q 2972 2956 3137 2557 
Q 3303 2159 3303 1684 
Q 3303 1175 3120 767 
Q 2938 359 2589 142 
Q 2241 -75 1856 -75 
Q 1575 -75 1351 44 
Q 1128 163 984 344 
L 984 -1272 
L 422 -1272 
z
M 931 1641 
Q 931 1000 1190 694 
Q 1450 388 1819 388 
Q 2194 388 2461 705 
Q 2728 1022 2728 1688 
Q 2728 2322 2467 2637 
Q 2206 2953 1844 2953 
Q 1484 2953 1207 2617 
Q 931 2281 931 1641 
z
" transform="scale(0.015625)"/>
     </defs>
     <use xlink:href="#ArialMT-56"/>
     <use xlink:href="#ArialMT-69" x="64.949219"/>
     <use xlink:href="#ArialMT-6f" x="87.166016"/>
     <use xlink:href="#ArialMT-6c" x="142.78125"/>
     <use xlink:href="#ArialMT-69" x="164.998047"/>
     <use xlink:href="#ArialMT-6e" x="187.214844"/>
     <use xlink:href="#ArialMT-20" x="242.830078"/>
     <use xlink:href="#ArialMT-70" x="270.613281"/>
     <use xlink:href="#ArialMT-6c" x="326.228516"/>
     <use xlink:href="#ArialMT-6f" x="348.445312"/>
     <use xlink:href="#ArialMT-74" x="404.060547"/>
    </g>
    <!-- Min: 0.02, Max: 0.10 -->
    <g transform="translate(108.414375 35.856) scale(0.14 -0.14)">
     <defs>
      <path id="ArialMT-4d" d="M 475 0 
L 475 4581 
L 1388 4581 
L 2472 1338 
Q 2622 884 2691 659 
Q 2769 909 2934 1394 
L 4031 4581 
L 4847 4581 
L 4847 0 
L 4263 0 
L 4263 3834 
L 2931 0 
L 2384 0 
L 1059 3900 
L 1059 0 
L 475 0 
z
" transform="scale(0.015625)"/>
      <path id="ArialMT-3a" d="M 578 2678 
L 578 3319 
L 1219 3319 
L 1219 2678 
L 578 2678 
z
M 578 0 
L 578 641 
L 1219 641 
L 1219 0 
L 578 0 
z
" transform="scale(0.015625)"/>
      <path id="ArialMT-32" d="M 3222 541 
L 3222 0 
L 194 0 
Q 188 203 259 391 
Q 375 700 629 1000 
Q 884 1300 1366 1694 
Q 2113 2306 2375 2664 
Q 2638 3022 2638 3341 
Q 2638 3675 2398 3904 
Q 2159 4134 1775 4134 
Q 1369 4134 1125 3890 
Q 881 3647 878 3216 
L 300 3275 
Q 359 3922 746 4261 
Q 1134 4600 1788 4600 
Q 2447 4600 2831 4234 
Q 3216 3869 3216 3328 
Q 3216 3053 3103 2787 
Q 2991 2522 2730 2228 
Q 2469 1934 1863 1422 
Q 1356 997 1212 845 
Q 1069 694 975 541 
L 3222 541 
z
" transform="scale(0.015625)"/>
      <path id="ArialMT-2c" d="M 569 0 
L 569 641 
L 1209 641 
L 1209 0 
Q 1209 -353 1084 -570 
Q 959 -788 688 -906 
L 531 -666 
Q 709 -588 793 -436 
Q 878 -284 888 0 
L 569 0 
z
" transform="scale(0.015625)"/>
      <path id="ArialMT-78" d="M 47 0 
L 1259 1725 
L 138 3319 
L 841 3319 
L 1350 2541 
Q 1494 2319 1581 2169 
Q 1719 2375 1834 2534 
L 2394 3319 
L 3066 3319 
L 1919 1756 
L 3153 0 
L 2463 0 
L 1781 1031 
L 1600 1309 
L 728 0 
L 47 0 
z
" transform="scale(0.015625)"/>
     </defs>
     <use xlink:href="#ArialMT-4d"/>
     <use xlink:href="#ArialMT-69" x="83.300781"/>
     <use xlink:href="#ArialMT-6e" x="105.517578"/>
     <use xlink:href="#ArialMT-3a" x="161.132812"/>
     <use xlink:href="#ArialMT-20" x="188.916016"/>
     <use xlink:href="#ArialMT-30" x="216.699219"/>
     <use xlink:href="#ArialMT-2e" x="272.314453"/>
     <use xlink:href="#ArialMT-30" x="300.097656"/>
     <use xlink:href="#ArialMT-32" x="355.712891"/>
     <use xlink:href="#ArialMT-2c" x="411.328125"/>
     <use xlink:href="#ArialMT-20" x="439.111328"/>
     <use xlink:href="#ArialMT-4d" x="466.894531"/>
     <use xlink:href="#ArialMT-61" x="550.195312"/>
     <use xlink:href="#ArialMT-78" x="605.810547"/>
     <use xlink:href="#ArialMT-3a" x="655.810547"/>
     <use xlink:href="#ArialMT-20" x="683.59375"/>
     <use xlink:href="#ArialMT-30" x="711.376953"/>
     <use xlink:href="#ArialMT-2e" x="766.992188"/>
     <use xlink:href="#ArialMT-31" x="794.775391"/>
     <use xlink:href="#ArialMT-30" x="850.390625"/>
    </g>
   </g>
  </g>
  <g id="axes_2">
   <g id="patch_7">
    <path d="M 333 94.84 
L 565.2 94.84 
L 565.2 41.856 
L 333 41.856 
z
" style="fill: #ffffff"/>
   </g>
   <g id="matplotlib.axis_3">
    <g id="xtick_2">
     <g id="line2d_4">
      <g>
       <use xlink:href="#mf4df095fa2" x="449.1" y="94.84" style="stroke: #000000; stroke-width: 0.8"/>
      </g>
     </g>
     <g id="text_7">
      <!-- 1 -->
      <g transform="translate(445.207344 111.860938) scale(0.14 -0.14)">
       <use xlink:href="#ArialMT-31"/>
      </g>
     </g>
    </g>
    <g id="text_8">
     <!-- Rat -->
     <g transform="translate(436.65125 130.095937) scale(0.16 -0.16)">
      <use xlink:href="#ArialMT-52"/>
      <use xlink:href="#ArialMT-61" x="72.216797"/>
      <use xlink:href="#ArialMT-74" x="127.832031"/>
     </g>
    </g>
   </g>
   <g id="matplotlib.axis_4">
    <g id="ytick_3">
     <g id="line2d_5">
      <g>
       <use xlink:href="#m619e3d4fc3" x="333" y="74.368909" style="stroke: #000000; stroke-width: 0.8"/>
      </g>
     </g>
     <g id="text_9">
      <!-- 0.05 -->
      <g transform="translate(298.754687 79.379378) scale(0.14 -0.14)">
       <defs>
        <path id="ArialMT-35" d="M 266 1200 
L 856 1250 
Q 922 819 1161 601 
Q 1400 384 1738 384 
Q 2144 384 2425 690 
Q 2706 997 2706 1503 
Q 2706 1984 2436 2262 
Q 2166 2541 1728 2541 
Q 1456 2541 1237 2417 
Q 1019 2294 894 2097 
L 366 2166 
L 809 4519 
L 3088 4519 
L 3088 3981 
L 1259 3981 
L 1013 2750 
Q 1425 3038 1878 3038 
Q 2478 3038 2890 2622 
Q 3303 2206 3303 1553 
Q 3303 931 2941 478 
Q 2500 -78 1738 -78 
Q 1113 -78 717 272 
Q 322 622 266 1200 
z
" transform="scale(0.015625)"/>
       </defs>
       <use xlink:href="#ArialMT-30"/>
       <use xlink:href="#ArialMT-2e" x="55.615234"/>
       <use xlink:href="#ArialMT-30" x="83.398438"/>
       <use xlink:href="#ArialMT-35" x="139.013672"/>
      </g>
     </g>
    </g>
    <g id="ytick_4">
     <g id="line2d_6">
      <g>
       <use xlink:href="#m619e3d4fc3" x="333" y="44.264364" style="stroke: #000000; stroke-width: 0.8"/>
      </g>
     </g>
     <g id="text_10">
      <!-- 0.10 -->
      <g transform="translate(298.754687 49.274832) scale(0.14 -0.14)">
       <use xlink:href="#ArialMT-30"/>
       <use xlink:href="#ArialMT-2e" x="55.615234"/>
       <use xlink:href="#ArialMT-31" x="83.398438"/>
       <use xlink:href="#ArialMT-30" x="139.013672"/>
      </g>
     </g>
    </g>
   </g>
   <g id="line2d_7">
    <path d="M 431.685 89.421182 
L 466.515 89.421182 
L 466.515 44.264364 
L 431.685 44.264364 
L 431.685 89.421182 
" clip-path="url(#p0d1147bb94)" style="fill: none; stroke: #ff7f50; stroke-linecap: square"/>
   </g>
   <g id="line2d_8">
    <path d="M 449.1 89.421182 
L 449.1 92.431636 
" clip-path="url(#p0d1147bb94)" style="fill: none; stroke: #ff7f50; stroke-linecap: square"/>
   </g>
   <g id="line2d_9">
    <path d="M 449.1 44.264364 
L 449.1 44.264364 
" clip-path="url(#p0d1147bb94)" style="fill: none; stroke: #ff7f50; stroke-linecap: square"/>
   </g>
   <g id="line2d_10">
    <path d="M 440.3925 92.431636 
L 457.8075 92.431636 
" clip-path="url(#p0d1147bb94)" style="fill: none; stroke: #ff7f50; stroke-linecap: square"/>
   </g>
   <g id="line2d_11">
    <path d="M 440.3925 44.264364 
L 457.8075 44.264364 
" clip-path="url(#p0d1147bb94)" style="fill: none; stroke: #ff7f50; stroke-linecap: square"/>
   </g>
   <g id="line2d_12"/>
   <g id="line2d_13">
    <path d="M 431.685 84.604455 
L 466.515 84.604455 
" clip-path="url(#p0d1147bb94)" style="fill: none; stroke: #ff7f0e; stroke-linecap: square"/>
   </g>
   <g id="patch_8">
    <path d="M 333 94.84 
L 333 41.856 
" style="fill: none; stroke: #000000; stroke-width: 0.8; stroke-linejoin: miter; stroke-linecap: square"/>
   </g>
   <g id="patch_9">
    <path d="M 565.2 94.84 
L 565.2 41.856 
" style="fill: none; stroke: #000000; stroke-width: 0.8; stroke-linejoin: miter; stroke-linecap: square"/>
   </g>
   <g id="patch_10">
    <path d="M 333 94.84 
L 565.2 94.84 
" style="fill: none; stroke: #000000; stroke-width: 0.8; stroke-linejoin: miter; stroke-linecap: square"/>
   </g>
   <g id="patch_11">
    <path d="M 333 41.856 
L 565.2 41.856 
" style="fill: none; stroke: #000000; stroke-width: 0.8; stroke-linejoin: miter; stroke-linecap: square"/>
   </g>
   <g id="text_11">
    <!-- Boxplot -->
    <g transform="translate(425.752812 21.048375) scale(0.14 -0.14)">
     <defs>
      <path id="ArialMT-42" d="M 469 0 
L 469 4581 
L 2188 4581 
Q 2713 4581 3030 4442 
Q 3347 4303 3526 4014 
Q 3706 3725 3706 3409 
Q 3706 3116 3547 2856 
Q 3388 2597 3066 2438 
Q 3481 2316 3704 2022 
Q 3928 1728 3928 1328 
Q 3928 1006 3792 729 
Q 3656 453 3456 303 
Q 3256 153 2954 76 
Q 2653 0 2216 0 
L 469 0 
z
M 1075 2656 
L 2066 2656 
Q 2469 2656 2644 2709 
Q 2875 2778 2992 2937 
Q 3109 3097 3109 3338 
Q 3109 3566 3000 3739 
Q 2891 3913 2687 3977 
Q 2484 4041 1991 4041 
L 1075 4041 
L 1075 2656 
z
M 1075 541 
L 2216 541 
Q 2509 541 2628 563 
Q 2838 600 2978 687 
Q 3119 775 3209 942 
Q 3300 1109 3300 1328 
Q 3300 1584 3169 1773 
Q 3038 1963 2805 2039 
Q 2572 2116 2134 2116 
L 1075 2116 
L 1075 541 
z
" transform="scale(0.015625)"/>
     </defs>
     <use xlink:href="#ArialMT-42"/>
     <use xlink:href="#ArialMT-6f" x="66.699219"/>
     <use xlink:href="#ArialMT-78" x="122.314453"/>
     <use xlink:href="#ArialMT-70" x="172.314453"/>
     <use xlink:href="#ArialMT-6c" x="227.929688"/>
     <use xlink:href="#ArialMT-6f" x="250.146484"/>
     <use xlink:href="#ArialMT-74" x="305.761719"/>
    </g>
    <!-- Min: 0.02, Max: 0.10 -->
    <g transform="translate(385.684375 35.856) scale(0.14 -0.14)">
     <use xlink:href="#ArialMT-4d"/>
     <use xlink:href="#ArialMT-69" x="83.300781"/>
     <use xlink:href="#ArialMT-6e" x="105.517578"/>
     <use xlink:href="#ArialMT-3a" x="161.132812"/>
     <use xlink:href="#ArialMT-20" x="188.916016"/>
     <use xlink:href="#ArialMT-30" x="216.699219"/>
     <use xlink:href="#ArialMT-2e" x="272.314453"/>
     <use xlink:href="#ArialMT-30" x="300.097656"/>
     <use xlink:href="#ArialMT-32" x="355.712891"/>
     <use xlink:href="#ArialMT-2c" x="411.328125"/>
     <use xlink:href="#ArialMT-20" x="439.111328"/>
     <use xlink:href="#ArialMT-4d" x="466.894531"/>
     <use xlink:href="#ArialMT-61" x="550.195312"/>
     <use xlink:href="#ArialMT-78" x="605.810547"/>
     <use xlink:href="#ArialMT-3a" x="655.810547"/>
     <use xlink:href="#ArialMT-20" x="683.59375"/>
     <use xlink:href="#ArialMT-30" x="711.376953"/>
     <use xlink:href="#ArialMT-2e" x="766.992188"/>
     <use xlink:href="#ArialMT-31" x="794.775391"/>
     <use xlink:href="#ArialMT-30" x="850.390625"/>
    </g>
   </g>
  </g>
 </g>
 <defs>
  <clipPath id="pc0a1c7b615">
   <rect x="55.73" y="41.856" width="232.2" height="52.984"/>
  </clipPath>
  <clipPath id="p0d1147bb94">
   <rect x="333" y="41.856" width="232.2" height="52.984"/>
  </clipPath>
 </defs>
</svg>
