<?xml version="1.0" encoding="utf-8" standalone="no"?>
<!DOCTYPE svg PUBLIC "-//W3C//DTD SVG 1.1//EN"
  "http://www.w3.org/Graphics/SVG/1.1/DTD/svg11.dtd">
<svg xmlns:xlink="http://www.w3.org/1999/xlink" width="576pt" height="144pt" viewBox="0 0 576 144" xmlns="http://www.w3.org/2000/svg" version="1.1">
 <metadata>
  <rdf:RDF xmlns:dc="http://purl.org/dc/elements/1.1/" xmlns:cc="http://creativecommons.org/ns#" xmlns:rdf="http://www.w3.org/1999/02/22-rdf-syntax-ns#">
   <cc:Work>
    <dc:type rdf:resource="http://purl.org/dc/dcmitype/StillImage"/>
    <dc:date>2024-03-24T16:51:00.937490</dc:date>
    <dc:format>image/svg+xml</dc:format>
    <dc:creator>
     <cc:Agent>
      <dc:title>Matplotlib v3.7.1, https://matplotlib.org/</dc:title>
     </cc:Agent>
    </dc:creator>
   </cc:Work>
  </rdf:RDF>
 </metadata>
 <defs>
  <style type="text/css">*{stroke-linejoin: round; stroke-linecap: butt}</style>
 </defs>
 <g id="figure_1">
  <g id="patch_1">
   <path d="M 0 144 
L 576 144 
L 576 0 
L 0 0 
z
" style="fill: #ffffff"/>
  </g>
  <g id="axes_1">
   <g id="patch_2">
    <path d="M 59.51 94.84 
L 291.8 94.84 
L 291.8 41.856 
L 59.51 41.856 
z
" style="fill: #ffffff"/>
   </g>
   <g id="PolyCollection_1">
    <defs>
     <path id="m7c207552b1" d="M 183.107424 -51.568364 
L 168.202576 -51.568364 
L 166.478818 -52.054902 
L 164.482902 -52.54144 
L 162.204809 -53.027978 
L 159.64249 -53.514516 
L 156.803409 -54.001054 
L 153.70574 -54.487592 
L 150.379062 -54.97413 
L 146.864406 -55.460669 
L 143.213525 -55.947207 
L 139.487334 -56.433745 
L 135.753494 -56.920283 
L 132.08324 -57.406821 
L 128.54757 -57.893359 
L 125.213063 -58.379897 
L 122.137591 -58.866435 
L 119.36628 -59.352973 
L 116.928071 -59.839511 
L 114.833226 -60.32605 
L 113.072062 -60.812588 
L 111.615122 -61.299126 
L 110.414877 -61.785664 
L 109.408918 -62.272202 
L 108.524467 -62.75874 
L 107.683909 -63.245278 
L 106.810922 -63.731816 
L 105.836714 -64.218354 
L 104.705843 -64.704893 
L 103.381093 -65.191431 
L 101.846956 -65.677969 
L 100.111358 -66.164507 
L 98.205416 -66.651045 
L 96.181203 -67.137583 
L 94.107631 -67.624121 
L 92.064789 -68.110659 
L 90.137179 -68.597197 
L 88.406435 -69.083736 
L 86.94415 -69.570274 
L 85.805469 -70.056812 
L 85.024015 -70.54335 
L 84.608635 -71.029888 
L 84.542279 -71.516426 
L 84.783152 -72.002964 
L 85.268047 -72.489502 
L 85.917594 -72.97604 
L 86.642962 -73.462579 
L 87.353427 -73.949117 
L 87.964129 -74.435655 
L 88.403303 -74.922193 
L 88.618352 -75.408731 
L 88.580185 -75.895269 
L 88.28543 -76.381807 
L 87.756326 -76.868345 
L 87.038292 -77.354883 
L 86.195396 -77.841421 
L 85.304146 -78.32796 
L 84.446181 -78.814498 
L 83.700518 -79.301036 
L 83.136093 -79.787574 
L 82.805282 -80.274112 
L 82.739 -80.76065 
L 82.943838 -81.247188 
L 83.401516 -81.733726 
L 84.070702 -82.220264 
L 84.891036 -82.706803 
L 85.789003 -83.193341 
L 86.685123 -83.679879 
L 87.501796 -84.166417 
L 88.171111 -84.652955 
L 88.641899 -85.139493 
L 88.885397 -85.626031 
L 88.899031 -86.112569 
L 88.707964 -86.599107 
L 88.364284 -87.085646 
L 87.943909 -87.572184 
L 87.541476 -88.058722 
L 87.263664 -88.54526 
L 87.221523 -89.031798 
L 87.522447 -89.518336 
L 88.262458 -90.004874 
L 89.519404 -90.491412 
L 91.347589 -90.97795 
L 93.774195 -91.464489 
L 96.797712 -91.951027 
L 100.388393 -92.437565 
L 104.490598 -92.924103 
L 109.026728 -93.410641 
L 113.902372 -93.897179 
L 119.012178 -94.383717 
L 124.245979 -94.870255 
L 129.494715 -95.356793 
L 134.655738 -95.843331 
L 139.637213 -96.32987 
L 144.361397 -96.816408 
L 148.766716 -97.302946 
L 152.808647 -97.789484 
L 156.459525 -98.276022 
L 159.707423 -98.76256 
L 162.554344 -99.249098 
L 165.013942 -99.735636 
L 186.296058 -99.735636 
L 186.296058 -99.735636 
L 188.755656 -99.249098 
L 191.602577 -98.76256 
L 194.850475 -98.276022 
L 198.501353 -97.789484 
L 202.543284 -97.302946 
L 206.948603 -96.816408 
L 211.672787 -96.32987 
L 216.654262 -95.843331 
L 221.815285 -95.356793 
L 227.064021 -94.870255 
L 232.297822 -94.383717 
L 237.407628 -93.897179 
L 242.283272 -93.410641 
L 246.819402 -92.924103 
L 250.921607 -92.437565 
L 254.512288 -91.951027 
L 257.535805 -91.464489 
L 259.962411 -90.97795 
L 261.790596 -90.491412 
L 263.047542 -90.004874 
L 263.787553 -89.518336 
L 264.088477 -89.031798 
L 264.046336 -88.54526 
L 263.768524 -88.058722 
L 263.366091 -87.572184 
L 262.945716 -87.085646 
L 262.602036 -86.599107 
L 262.410969 -86.112569 
L 262.424603 -85.626031 
L 262.668101 -85.139493 
L 263.138889 -84.652955 
L 263.808204 -84.166417 
L 264.624877 -83.679879 
L 265.520997 -83.193341 
L 266.418964 -82.706803 
L 267.239298 -82.220264 
L 267.908484 -81.733726 
L 268.366162 -81.247188 
L 268.571 -80.76065 
L 268.504718 -80.274112 
L 268.173907 -79.787574 
L 267.609482 -79.301036 
L 266.863819 -78.814498 
L 266.005854 -78.32796 
L 265.114604 -77.841421 
L 264.271708 -77.354883 
L 263.553674 -76.868345 
L 263.02457 -76.381807 
L 262.729815 -75.895269 
L 262.691648 -75.408731 
L 262.906697 -74.922193 
L 263.345871 -74.435655 
L 263.956573 -73.949117 
L 264.667038 -73.462579 
L 265.392406 -72.97604 
L 266.041953 -72.489502 
L 266.526848 -72.002964 
L 266.767721 -71.516426 
L 266.701365 -71.029888 
L 266.285985 -70.54335 
L 265.504531 -70.056812 
L 264.36585 -69.570274 
L 262.903565 -69.083736 
L 261.172821 -68.597197 
L 259.245211 -68.110659 
L 257.202369 -67.624121 
L 255.128797 -67.137583 
L 253.104584 -66.651045 
L 251.198642 -66.164507 
L 249.463044 -65.677969 
L 247.928907 -65.191431 
L 246.604157 -64.704893 
L 245.473286 -64.218354 
L 244.499078 -63.731816 
L 243.626091 -63.245278 
L 242.785533 -62.75874 
L 241.901082 -62.272202 
L 240.895123 -61.785664 
L 239.694878 -61.299126 
L 238.237938 -60.812588 
L 236.476774 -60.32605 
L 234.381929 -59.839511 
L 231.94372 -59.352973 
L 229.172409 -58.866435 
L 226.096937 -58.379897 
L 222.76243 -57.893359 
L 219.22676 -57.406821 
L 215.556506 -56.920283 
L 211.822666 -56.433745 
L 208.096475 -55.947207 
L 204.445594 -55.460669 
L 200.930938 -54.97413 
L 197.60426 -54.487592 
L 194.506591 -54.001054 
L 191.66751 -53.514516 
L 189.105191 -53.027978 
L 186.827098 -52.54144 
L 184.831182 -52.054902 
L 183.107424 -51.568364 
z
" style="stroke: #646464; stroke-width: 1.5"/>
    </defs>
    <g clip-path="url(#p82d27b979f)">
     <use xlink:href="#m7c207552b1" x="0" y="144" style="fill: #e98966; stroke: #646464; stroke-width: 1.5"/>
    </g>
   </g>
   <g id="PathCollection_1">
    <defs>
     <path id="ma99c9b48d0" d="M 0 1.5 
C 0.397805 1.5 0.77937 1.341951 1.06066 1.06066 
C 1.341951 0.77937 1.5 0.397805 1.5 0 
C 1.5 -0.397805 1.341951 -0.77937 1.06066 -1.06066 
C 0.77937 -1.341951 0.397805 -1.5 0 -1.5 
C -0.397805 -1.5 -0.77937 -1.341951 -1.06066 -1.06066 
C -1.341951 -0.77937 -1.5 -0.397805 -1.5 0 
C -1.5 0.397805 -1.341951 0.77937 -1.06066 1.06066 
C -0.77937 1.341951 -0.397805 1.5 0 1.5 
z
" style="stroke: #646464"/>
    </defs>
    <g clip-path="url(#p82d27b979f)">
     <use xlink:href="#ma99c9b48d0" x="175.655" y="53.387181" style="fill: #646464; stroke: #646464"/>
     <use xlink:href="#ma99c9b48d0" x="175.655" y="53.387181" style="fill: #646464; stroke: #646464"/>
     <use xlink:href="#ma99c9b48d0" x="175.655" y="53.387181" style="fill: #646464; stroke: #646464"/>
     <use xlink:href="#ma99c9b48d0" x="175.655" y="53.387181" style="fill: #646464; stroke: #646464"/>
     <use xlink:href="#ma99c9b48d0" x="175.655" y="53.387181" style="fill: #646464; stroke: #646464"/>
     <use xlink:href="#ma99c9b48d0" x="175.655" y="53.387181" style="fill: #646464; stroke: #646464"/>
     <use xlink:href="#ma99c9b48d0" x="175.655" y="53.387181" style="fill: #646464; stroke: #646464"/>
     <use xlink:href="#ma99c9b48d0" x="175.655" y="53.387181" style="fill: #646464; stroke: #646464"/>
     <use xlink:href="#ma99c9b48d0" x="175.655" y="53.387181" style="fill: #646464; stroke: #646464"/>
     <use xlink:href="#ma99c9b48d0" x="175.655" y="53.387181" style="fill: #646464; stroke: #646464"/>
     <use xlink:href="#ma99c9b48d0" x="175.655" y="53.387181" style="fill: #646464; stroke: #646464"/>
     <use xlink:href="#ma99c9b48d0" x="175.655" y="53.387181" style="fill: #646464; stroke: #646464"/>
     <use xlink:href="#ma99c9b48d0" x="175.655" y="53.387181" style="fill: #646464; stroke: #646464"/>
     <use xlink:href="#ma99c9b48d0" x="175.655" y="53.387181" style="fill: #646464; stroke: #646464"/>
     <use xlink:href="#ma99c9b48d0" x="175.655" y="53.387181" style="fill: #646464; stroke: #646464"/>
     <use xlink:href="#ma99c9b48d0" x="175.655" y="53.387181" style="fill: #646464; stroke: #646464"/>
     <use xlink:href="#ma99c9b48d0" x="175.655" y="53.387181" style="fill: #646464; stroke: #646464"/>
     <use xlink:href="#ma99c9b48d0" x="175.655" y="53.387181" style="fill: #646464; stroke: #646464"/>
     <use xlink:href="#ma99c9b48d0" x="175.655" y="53.387181" style="fill: #646464; stroke: #646464"/>
     <use xlink:href="#ma99c9b48d0" x="175.655" y="53.387181" style="fill: #646464; stroke: #646464"/>
     <use xlink:href="#ma99c9b48d0" x="175.655" y="63.36106" style="fill: #646464; stroke: #646464"/>
     <use xlink:href="#ma99c9b48d0" x="175.655" y="63.36106" style="fill: #646464; stroke: #646464"/>
     <use xlink:href="#ma99c9b48d0" x="175.655" y="63.36106" style="fill: #646464; stroke: #646464"/>
     <use xlink:href="#ma99c9b48d0" x="175.655" y="63.36106" style="fill: #646464; stroke: #646464"/>
     <use xlink:href="#ma99c9b48d0" x="175.655" y="63.36106" style="fill: #646464; stroke: #646464"/>
     <use xlink:href="#ma99c9b48d0" x="175.655" y="63.36106" style="fill: #646464; stroke: #646464"/>
     <use xlink:href="#ma99c9b48d0" x="175.655" y="63.36106" style="fill: #646464; stroke: #646464"/>
     <use xlink:href="#ma99c9b48d0" x="175.655" y="63.36106" style="fill: #646464; stroke: #646464"/>
     <use xlink:href="#ma99c9b48d0" x="175.655" y="63.36106" style="fill: #646464; stroke: #646464"/>
     <use xlink:href="#ma99c9b48d0" x="175.655" y="63.36106" style="fill: #646464; stroke: #646464"/>
     <use xlink:href="#ma99c9b48d0" x="175.655" y="63.36106" style="fill: #646464; stroke: #646464"/>
     <use xlink:href="#ma99c9b48d0" x="175.655" y="63.36106" style="fill: #646464; stroke: #646464"/>
     <use xlink:href="#ma99c9b48d0" x="175.655" y="63.36106" style="fill: #646464; stroke: #646464"/>
     <use xlink:href="#ma99c9b48d0" x="175.655" y="63.36106" style="fill: #646464; stroke: #646464"/>
     <use xlink:href="#ma99c9b48d0" x="175.655" y="63.36106" style="fill: #646464; stroke: #646464"/>
     <use xlink:href="#ma99c9b48d0" x="175.655" y="63.36106" style="fill: #646464; stroke: #646464"/>
     <use xlink:href="#ma99c9b48d0" x="175.655" y="63.36106" style="fill: #646464; stroke: #646464"/>
     <use xlink:href="#ma99c9b48d0" x="175.655" y="63.36106" style="fill: #646464; stroke: #646464"/>
     <use xlink:href="#ma99c9b48d0" x="175.655" y="63.36106" style="fill: #646464; stroke: #646464"/>
     <use xlink:href="#ma99c9b48d0" x="175.655" y="63.36106" style="fill: #646464; stroke: #646464"/>
     <use xlink:href="#ma99c9b48d0" x="175.655" y="73.33494" style="fill: #646464; stroke: #646464"/>
     <use xlink:href="#ma99c9b48d0" x="175.655" y="73.33494" style="fill: #646464; stroke: #646464"/>
     <use xlink:href="#ma99c9b48d0" x="175.655" y="73.33494" style="fill: #646464; stroke: #646464"/>
     <use xlink:href="#ma99c9b48d0" x="175.655" y="73.33494" style="fill: #646464; stroke: #646464"/>
     <use xlink:href="#ma99c9b48d0" x="175.655" y="73.33494" style="fill: #646464; stroke: #646464"/>
     <use xlink:href="#ma99c9b48d0" x="175.655" y="73.33494" style="fill: #646464; stroke: #646464"/>
     <use xlink:href="#ma99c9b48d0" x="175.655" y="73.33494" style="fill: #646464; stroke: #646464"/>
     <use xlink:href="#ma99c9b48d0" x="175.655" y="73.33494" style="fill: #646464; stroke: #646464"/>
     <use xlink:href="#ma99c9b48d0" x="175.655" y="73.33494" style="fill: #646464; stroke: #646464"/>
     <use xlink:href="#ma99c9b48d0" x="175.655" y="73.33494" style="fill: #646464; stroke: #646464"/>
     <use xlink:href="#ma99c9b48d0" x="175.655" y="73.33494" style="fill: #646464; stroke: #646464"/>
     <use xlink:href="#ma99c9b48d0" x="175.655" y="73.33494" style="fill: #646464; stroke: #646464"/>
     <use xlink:href="#ma99c9b48d0" x="175.655" y="73.33494" style="fill: #646464; stroke: #646464"/>
     <use xlink:href="#ma99c9b48d0" x="175.655" y="73.33494" style="fill: #646464; stroke: #646464"/>
     <use xlink:href="#ma99c9b48d0" x="175.655" y="73.33494" style="fill: #646464; stroke: #646464"/>
     <use xlink:href="#ma99c9b48d0" x="175.655" y="73.33494" style="fill: #646464; stroke: #646464"/>
     <use xlink:href="#ma99c9b48d0" x="175.655" y="73.33494" style="fill: #646464; stroke: #646464"/>
     <use xlink:href="#ma99c9b48d0" x="175.655" y="73.33494" style="fill: #646464; stroke: #646464"/>
     <use xlink:href="#ma99c9b48d0" x="175.655" y="73.33494" style="fill: #646464; stroke: #646464"/>
     <use xlink:href="#ma99c9b48d0" x="175.655" y="73.33494" style="fill: #646464; stroke: #646464"/>
     <use xlink:href="#ma99c9b48d0" x="175.655" y="83.308819" style="fill: #646464; stroke: #646464"/>
     <use xlink:href="#ma99c9b48d0" x="175.655" y="83.308819" style="fill: #646464; stroke: #646464"/>
     <use xlink:href="#ma99c9b48d0" x="175.655" y="83.308819" style="fill: #646464; stroke: #646464"/>
     <use xlink:href="#ma99c9b48d0" x="175.655" y="83.308819" style="fill: #646464; stroke: #646464"/>
     <use xlink:href="#ma99c9b48d0" x="175.655" y="83.308819" style="fill: #646464; stroke: #646464"/>
     <use xlink:href="#ma99c9b48d0" x="175.655" y="83.308819" style="fill: #646464; stroke: #646464"/>
     <use xlink:href="#ma99c9b48d0" x="175.655" y="83.308819" style="fill: #646464; stroke: #646464"/>
     <use xlink:href="#ma99c9b48d0" x="175.655" y="83.308819" style="fill: #646464; stroke: #646464"/>
     <use xlink:href="#ma99c9b48d0" x="175.655" y="83.308819" style="fill: #646464; stroke: #646464"/>
     <use xlink:href="#ma99c9b48d0" x="175.655" y="83.308819" style="fill: #646464; stroke: #646464"/>
     <use xlink:href="#ma99c9b48d0" x="175.655" y="83.308819" style="fill: #646464; stroke: #646464"/>
     <use xlink:href="#ma99c9b48d0" x="175.655" y="83.308819" style="fill: #646464; stroke: #646464"/>
     <use xlink:href="#ma99c9b48d0" x="175.655" y="83.308819" style="fill: #646464; stroke: #646464"/>
     <use xlink:href="#ma99c9b48d0" x="175.655" y="83.308819" style="fill: #646464; stroke: #646464"/>
    </g>
   </g>
   <g id="matplotlib.axis_1">
    <g id="xtick_1">
     <g id="line2d_1">
      <defs>
       <path id="mdaa0b78c6f" d="M 0 0 
L 0 3.5 
" style="stroke: #000000; stroke-width: 0.8"/>
      </defs>
      <g>
       <use xlink:href="#mdaa0b78c6f" x="175.655" y="94.84" style="stroke: #000000; stroke-width: 0.8"/>
      </g>
     </g>
     <g id="text_1">
      <!-- 0 -->
      <g transform="translate(171.762344 111.860938) scale(0.14 -0.14)">
       <defs>
        <path id="ArialMT-30" d="M 266 2259 
Q 266 3072 433 3567 
Q 600 4063 929 4331 
Q 1259 4600 1759 4600 
Q 2128 4600 2406 4451 
Q 2684 4303 2865 4023 
Q 3047 3744 3150 3342 
Q 3253 2941 3253 2259 
Q 3253 1453 3087 958 
Q 2922 463 2592 192 
Q 2263 -78 1759 -78 
Q 1097 -78 719 397 
Q 266 969 266 2259 
z
M 844 2259 
Q 844 1131 1108 757 
Q 1372 384 1759 384 
Q 2147 384 2411 759 
Q 2675 1134 2675 2259 
Q 2675 3391 2411 3762 
Q 2147 4134 1753 4134 
Q 1366 4134 1134 3806 
Q 844 3388 844 2259 
z
" transform="scale(0.015625)"/>
       </defs>
       <use xlink:href="#ArialMT-30"/>
      </g>
     </g>
    </g>
    <g id="text_2">
     <!-- Temp -->
     <g transform="translate(156.0975 130.095937) scale(0.16 -0.16)">
      <defs>
       <path id="ArialMT-54" d="M 1659 0 
L 1659 4041 
L 150 4041 
L 150 4581 
L 3781 4581 
L 3781 4041 
L 2266 4041 
L 2266 0 
L 1659 0 
z
" transform="scale(0.015625)"/>
       <path id="ArialMT-65" d="M 2694 1069 
L 3275 997 
Q 3138 488 2766 206 
Q 2394 -75 1816 -75 
Q 1088 -75 661 373 
Q 234 822 234 1631 
Q 234 2469 665 2931 
Q 1097 3394 1784 3394 
Q 2450 3394 2872 2941 
Q 3294 2488 3294 1666 
Q 3294 1616 3291 1516 
L 816 1516 
Q 847 969 1125 678 
Q 1403 388 1819 388 
Q 2128 388 2347 550 
Q 2566 713 2694 1069 
z
M 847 1978 
L 2700 1978 
Q 2663 2397 2488 2606 
Q 2219 2931 1791 2931 
Q 1403 2931 1139 2672 
Q 875 2413 847 1978 
z
" transform="scale(0.015625)"/>
       <path id="ArialMT-6d" d="M 422 0 
L 422 3319 
L 925 3319 
L 925 2853 
Q 1081 3097 1340 3245 
Q 1600 3394 1931 3394 
Q 2300 3394 2536 3241 
Q 2772 3088 2869 2813 
Q 3263 3394 3894 3394 
Q 4388 3394 4653 3120 
Q 4919 2847 4919 2278 
L 4919 0 
L 4359 0 
L 4359 2091 
Q 4359 2428 4304 2576 
Q 4250 2725 4106 2815 
Q 3963 2906 3769 2906 
Q 3419 2906 3187 2673 
Q 2956 2441 2956 1928 
L 2956 0 
L 2394 0 
L 2394 2156 
Q 2394 2531 2256 2718 
Q 2119 2906 1806 2906 
Q 1569 2906 1367 2781 
Q 1166 2656 1075 2415 
Q 984 2175 984 1722 
L 984 0 
L 422 0 
z
" transform="scale(0.015625)"/>
       <path id="ArialMT-70" d="M 422 -1272 
L 422 3319 
L 934 3319 
L 934 2888 
Q 1116 3141 1344 3267 
Q 1572 3394 1897 3394 
Q 2322 3394 2647 3175 
Q 2972 2956 3137 2557 
Q 3303 2159 3303 1684 
Q 3303 1175 3120 767 
Q 2938 359 2589 142 
Q 2241 -75 1856 -75 
Q 1575 -75 1351 44 
Q 1128 163 984 344 
L 984 -1272 
L 422 -1272 
z
M 931 1641 
Q 931 1000 1190 694 
Q 1450 388 1819 388 
Q 2194 388 2461 705 
Q 2728 1022 2728 1688 
Q 2728 2322 2467 2637 
Q 2206 2953 1844 2953 
Q 1484 2953 1207 2617 
Q 931 2281 931 1641 
z
" transform="scale(0.015625)"/>
      </defs>
      <use xlink:href="#ArialMT-54"/>
      <use xlink:href="#ArialMT-65" x="49.958984"/>
      <use xlink:href="#ArialMT-6d" x="105.574219"/>
      <use xlink:href="#ArialMT-70" x="188.875"/>
     </g>
    </g>
   </g>
   <g id="matplotlib.axis_2">
    <g id="ytick_1">
     <g id="line2d_2">
      <defs>
       <path id="me2217a4ef7" d="M 0 0 
L -3.5 0 
" style="stroke: #000000; stroke-width: 0.8"/>
      </defs>
      <g>
       <use xlink:href="#me2217a4ef7" x="59.51" y="88.295758" style="stroke: #000000; stroke-width: 0.8"/>
      </g>
     </g>
     <g id="text_3">
      <!-- 150 -->
      <g transform="translate(29.154063 93.306227) scale(0.14 -0.14)">
       <defs>
        <path id="ArialMT-31" d="M 2384 0 
L 1822 0 
L 1822 3584 
Q 1619 3391 1289 3197 
Q 959 3003 697 2906 
L 697 3450 
Q 1169 3672 1522 3987 
Q 1875 4303 2022 4600 
L 2384 4600 
L 2384 0 
z
" transform="scale(0.015625)"/>
        <path id="ArialMT-35" d="M 266 1200 
L 856 1250 
Q 922 819 1161 601 
Q 1400 384 1738 384 
Q 2144 384 2425 690 
Q 2706 997 2706 1503 
Q 2706 1984 2436 2262 
Q 2166 2541 1728 2541 
Q 1456 2541 1237 2417 
Q 1019 2294 894 2097 
L 366 2166 
L 809 4519 
L 3088 4519 
L 3088 3981 
L 1259 3981 
L 1013 2750 
Q 1425 3038 1878 3038 
Q 2478 3038 2890 2622 
Q 3303 2206 3303 1553 
Q 3303 931 2941 478 
Q 2500 -78 1738 -78 
Q 1113 -78 717 272 
Q 322 622 266 1200 
z
" transform="scale(0.015625)"/>
       </defs>
       <use xlink:href="#ArialMT-31"/>
       <use xlink:href="#ArialMT-35" x="55.615234"/>
       <use xlink:href="#ArialMT-30" x="111.230469"/>
      </g>
     </g>
    </g>
    <g id="ytick_2">
     <g id="line2d_3">
      <g>
       <use xlink:href="#me2217a4ef7" x="59.51" y="63.36106" style="stroke: #000000; stroke-width: 0.8"/>
      </g>
     </g>
     <g id="text_4">
      <!-- 200 -->
      <g transform="translate(29.154063 68.371529) scale(0.14 -0.14)">
       <defs>
        <path id="ArialMT-32" d="M 3222 541 
L 3222 0 
L 194 0 
Q 188 203 259 391 
Q 375 700 629 1000 
Q 884 1300 1366 1694 
Q 2113 2306 2375 2664 
Q 2638 3022 2638 3341 
Q 2638 3675 2398 3904 
Q 2159 4134 1775 4134 
Q 1369 4134 1125 3890 
Q 881 3647 878 3216 
L 300 3275 
Q 359 3922 746 4261 
Q 1134 4600 1788 4600 
Q 2447 4600 2831 4234 
Q 3216 3869 3216 3328 
Q 3216 3053 3103 2787 
Q 2991 2522 2730 2228 
Q 2469 1934 1863 1422 
Q 1356 997 1212 845 
Q 1069 694 975 541 
L 3222 541 
z
" transform="scale(0.015625)"/>
       </defs>
       <use xlink:href="#ArialMT-32"/>
       <use xlink:href="#ArialMT-30" x="55.615234"/>
       <use xlink:href="#ArialMT-30" x="111.230469"/>
      </g>
     </g>
    </g>
    <g id="text_5">
     <!-- C -->
     <g transform="translate(21.974063 74.1255) rotate(-90) scale(0.16 -0.16)">
      <defs>
       <path id="ArialMT-43" d="M 3763 1606 
L 4369 1453 
Q 4178 706 3683 314 
Q 3188 -78 2472 -78 
Q 1731 -78 1267 223 
Q 803 525 561 1097 
Q 319 1669 319 2325 
Q 319 3041 592 3573 
Q 866 4106 1370 4382 
Q 1875 4659 2481 4659 
Q 3169 4659 3637 4309 
Q 4106 3959 4291 3325 
L 3694 3184 
Q 3534 3684 3231 3912 
Q 2928 4141 2469 4141 
Q 1941 4141 1586 3887 
Q 1231 3634 1087 3207 
Q 944 2781 944 2328 
Q 944 1744 1114 1308 
Q 1284 872 1643 656 
Q 2003 441 2422 441 
Q 2931 441 3284 734 
Q 3638 1028 3763 1606 
z
" transform="scale(0.015625)"/>
      </defs>
      <use xlink:href="#ArialMT-43"/>
     </g>
    </g>
   </g>
   <g id="patch_3">
    <path d="M 59.51 94.84 
L 59.51 41.856 
" style="fill: none; stroke: #000000; stroke-width: 0.8; stroke-linejoin: miter; stroke-linecap: square"/>
   </g>
   <g id="patch_4">
    <path d="M 291.8 94.84 
L 291.8 41.856 
" style="fill: none; stroke: #000000; stroke-width: 0.8; stroke-linejoin: miter; stroke-linecap: square"/>
   </g>
   <g id="patch_5">
    <path d="M 59.51 94.84 
L 291.8 94.84 
" style="fill: none; stroke: #000000; stroke-width: 0.8; stroke-linejoin: miter; stroke-linecap: square"/>
   </g>
   <g id="patch_6">
    <path d="M 59.51 41.856 
L 291.8 41.856 
" style="fill: none; stroke: #000000; stroke-width: 0.8; stroke-linejoin: miter; stroke-linecap: square"/>
   </g>
   <g id="text_6">
    <!-- Violin plot -->
    <g transform="translate(145.427031 21.048375) scale(0.14 -0.14)">
     <defs>
      <path id="ArialMT-56" d="M 1803 0 
L 28 4581 
L 684 4581 
L 1875 1253 
Q 2019 853 2116 503 
Q 2222 878 2363 1253 
L 3600 4581 
L 4219 4581 
L 2425 0 
L 1803 0 
z
" transform="scale(0.015625)"/>
      <path id="ArialMT-69" d="M 425 3934 
L 425 4581 
L 988 4581 
L 988 3934 
L 425 3934 
z
M 425 0 
L 425 3319 
L 988 3319 
L 988 0 
L 425 0 
z
" transform="scale(0.015625)"/>
      <path id="ArialMT-6f" d="M 213 1659 
Q 213 2581 725 3025 
Q 1153 3394 1769 3394 
Q 2453 3394 2887 2945 
Q 3322 2497 3322 1706 
Q 3322 1066 3130 698 
Q 2938 331 2570 128 
Q 2203 -75 1769 -75 
Q 1072 -75 642 372 
Q 213 819 213 1659 
z
M 791 1659 
Q 791 1022 1069 705 
Q 1347 388 1769 388 
Q 2188 388 2466 706 
Q 2744 1025 2744 1678 
Q 2744 2294 2464 2611 
Q 2184 2928 1769 2928 
Q 1347 2928 1069 2612 
Q 791 2297 791 1659 
z
" transform="scale(0.015625)"/>
      <path id="ArialMT-6c" d="M 409 0 
L 409 4581 
L 972 4581 
L 972 0 
L 409 0 
z
" transform="scale(0.015625)"/>
      <path id="ArialMT-6e" d="M 422 0 
L 422 3319 
L 928 3319 
L 928 2847 
Q 1294 3394 1984 3394 
Q 2284 3394 2536 3286 
Q 2788 3178 2913 3003 
Q 3038 2828 3088 2588 
Q 3119 2431 3119 2041 
L 3119 0 
L 2556 0 
L 2556 2019 
Q 2556 2363 2490 2533 
Q 2425 2703 2258 2804 
Q 2091 2906 1866 2906 
Q 1506 2906 1245 2678 
Q 984 2450 984 1813 
L 984 0 
L 422 0 
z
" transform="scale(0.015625)"/>
      <path id="ArialMT-20" transform="scale(0.015625)"/>
      <path id="ArialMT-74" d="M 1650 503 
L 1731 6 
Q 1494 -44 1306 -44 
Q 1000 -44 831 53 
Q 663 150 594 308 
Q 525 466 525 972 
L 525 2881 
L 113 2881 
L 113 3319 
L 525 3319 
L 525 4141 
L 1084 4478 
L 1084 3319 
L 1650 3319 
L 1650 2881 
L 1084 2881 
L 1084 941 
Q 1084 700 1114 631 
Q 1144 563 1211 522 
Q 1278 481 1403 481 
Q 1497 481 1650 503 
z
" transform="scale(0.015625)"/>
     </defs>
     <use xlink:href="#ArialMT-56"/>
     <use xlink:href="#ArialMT-69" x="64.949219"/>
     <use xlink:href="#ArialMT-6f" x="87.166016"/>
     <use xlink:href="#ArialMT-6c" x="142.78125"/>
     <use xlink:href="#ArialMT-69" x="164.998047"/>
     <use xlink:href="#ArialMT-6e" x="187.214844"/>
     <use xlink:href="#ArialMT-20" x="242.830078"/>
     <use xlink:href="#ArialMT-70" x="270.613281"/>
     <use xlink:href="#ArialMT-6c" x="326.228516"/>
     <use xlink:href="#ArialMT-6f" x="348.445312"/>
     <use xlink:href="#ArialMT-74" x="404.060547"/>
    </g>
    <!-- Min: 160.00, Max: 220.00 -->
    <g transform="translate(96.66875 35.856) scale(0.14 -0.14)">
     <defs>
      <path id="ArialMT-4d" d="M 475 0 
L 475 4581 
L 1388 4581 
L 2472 1338 
Q 2622 884 2691 659 
Q 2769 909 2934 1394 
L 4031 4581 
L 4847 4581 
L 4847 0 
L 4263 0 
L 4263 3834 
L 2931 0 
L 2384 0 
L 1059 3900 
L 1059 0 
L 475 0 
z
" transform="scale(0.015625)"/>
      <path id="ArialMT-3a" d="M 578 2678 
L 578 3319 
L 1219 3319 
L 1219 2678 
L 578 2678 
z
M 578 0 
L 578 641 
L 1219 641 
L 1219 0 
L 578 0 
z
" transform="scale(0.015625)"/>
      <path id="ArialMT-36" d="M 3184 3459 
L 2625 3416 
Q 2550 3747 2413 3897 
Q 2184 4138 1850 4138 
Q 1581 4138 1378 3988 
Q 1113 3794 959 3422 
Q 806 3050 800 2363 
Q 1003 2672 1297 2822 
Q 1591 2972 1913 2972 
Q 2475 2972 2870 2558 
Q 3266 2144 3266 1488 
Q 3266 1056 3080 686 
Q 2894 316 2569 119 
Q 2244 -78 1831 -78 
Q 1128 -78 684 439 
Q 241 956 241 2144 
Q 241 3472 731 4075 
Q 1159 4600 1884 4600 
Q 2425 4600 2770 4297 
Q 3116 3994 3184 3459 
z
M 888 1484 
Q 888 1194 1011 928 
Q 1134 663 1356 523 
Q 1578 384 1822 384 
Q 2178 384 2434 671 
Q 2691 959 2691 1453 
Q 2691 1928 2437 2201 
Q 2184 2475 1800 2475 
Q 1419 2475 1153 2201 
Q 888 1928 888 1484 
z
" transform="scale(0.015625)"/>
      <path id="ArialMT-2e" d="M 581 0 
L 581 641 
L 1222 641 
L 1222 0 
L 581 0 
z
" transform="scale(0.015625)"/>
      <path id="ArialMT-2c" d="M 569 0 
L 569 641 
L 1209 641 
L 1209 0 
Q 1209 -353 1084 -570 
Q 959 -788 688 -906 
L 531 -666 
Q 709 -588 793 -436 
Q 878 -284 888 0 
L 569 0 
z
" transform="scale(0.015625)"/>
      <path id="ArialMT-61" d="M 2588 409 
Q 2275 144 1986 34 
Q 1697 -75 1366 -75 
Q 819 -75 525 192 
Q 231 459 231 875 
Q 231 1119 342 1320 
Q 453 1522 633 1644 
Q 813 1766 1038 1828 
Q 1203 1872 1538 1913 
Q 2219 1994 2541 2106 
Q 2544 2222 2544 2253 
Q 2544 2597 2384 2738 
Q 2169 2928 1744 2928 
Q 1347 2928 1158 2789 
Q 969 2650 878 2297 
L 328 2372 
Q 403 2725 575 2942 
Q 747 3159 1072 3276 
Q 1397 3394 1825 3394 
Q 2250 3394 2515 3294 
Q 2781 3194 2906 3042 
Q 3031 2891 3081 2659 
Q 3109 2516 3109 2141 
L 3109 1391 
Q 3109 606 3145 398 
Q 3181 191 3288 0 
L 2700 0 
Q 2613 175 2588 409 
z
M 2541 1666 
Q 2234 1541 1622 1453 
Q 1275 1403 1131 1340 
Q 988 1278 909 1158 
Q 831 1038 831 891 
Q 831 666 1001 516 
Q 1172 366 1500 366 
Q 1825 366 2078 508 
Q 2331 650 2450 897 
Q 2541 1088 2541 1459 
L 2541 1666 
z
" transform="scale(0.015625)"/>
      <path id="ArialMT-78" d="M 47 0 
L 1259 1725 
L 138 3319 
L 841 3319 
L 1350 2541 
Q 1494 2319 1581 2169 
Q 1719 2375 1834 2534 
L 2394 3319 
L 3066 3319 
L 1919 1756 
L 3153 0 
L 2463 0 
L 1781 1031 
L 1600 1309 
L 728 0 
L 47 0 
z
" transform="scale(0.015625)"/>
     </defs>
     <use xlink:href="#ArialMT-4d"/>
     <use xlink:href="#ArialMT-69" x="83.300781"/>
     <use xlink:href="#ArialMT-6e" x="105.517578"/>
     <use xlink:href="#ArialMT-3a" x="161.132812"/>
     <use xlink:href="#ArialMT-20" x="188.916016"/>
     <use xlink:href="#ArialMT-31" x="216.699219"/>
     <use xlink:href="#ArialMT-36" x="272.314453"/>
     <use xlink:href="#ArialMT-30" x="327.929688"/>
     <use xlink:href="#ArialMT-2e" x="383.544922"/>
     <use xlink:href="#ArialMT-30" x="411.328125"/>
     <use xlink:href="#ArialMT-30" x="466.943359"/>
     <use xlink:href="#ArialMT-2c" x="522.558594"/>
     <use xlink:href="#ArialMT-20" x="550.341797"/>
     <use xlink:href="#ArialMT-4d" x="578.125"/>
     <use xlink:href="#ArialMT-61" x="661.425781"/>
     <use xlink:href="#ArialMT-78" x="717.041016"/>
     <use xlink:href="#ArialMT-3a" x="767.041016"/>
     <use xlink:href="#ArialMT-20" x="794.824219"/>
     <use xlink:href="#ArialMT-32" x="822.607422"/>
     <use xlink:href="#ArialMT-32" x="878.222656"/>
     <use xlink:href="#ArialMT-30" x="933.837891"/>
     <use xlink:href="#ArialMT-2e" x="989.453125"/>
     <use xlink:href="#ArialMT-30" x="1017.236328"/>
     <use xlink:href="#ArialMT-30" x="1072.851562"/>
    </g>
   </g>
  </g>
  <g id="axes_2">
   <g id="patch_7">
    <path d="M 332.91 94.84 
L 565.2 94.84 
L 565.2 41.856 
L 332.91 41.856 
z
" style="fill: #ffffff"/>
   </g>
   <g id="matplotlib.axis_3">
    <g id="xtick_2">
     <g id="line2d_4">
      <g>
       <use xlink:href="#mdaa0b78c6f" x="449.055" y="94.84" style="stroke: #000000; stroke-width: 0.8"/>
      </g>
     </g>
     <g id="text_7">
      <!-- 1 -->
      <g transform="translate(445.162344 111.860938) scale(0.14 -0.14)">
       <use xlink:href="#ArialMT-31"/>
      </g>
     </g>
    </g>
    <g id="text_8">
     <!-- Temp -->
     <g transform="translate(429.4975 130.095937) scale(0.16 -0.16)">
      <use xlink:href="#ArialMT-54"/>
      <use xlink:href="#ArialMT-65" x="49.958984"/>
      <use xlink:href="#ArialMT-6d" x="105.574219"/>
      <use xlink:href="#ArialMT-70" x="188.875"/>
     </g>
    </g>
   </g>
   <g id="matplotlib.axis_4">
    <g id="ytick_3">
     <g id="line2d_5">
      <g>
       <use xlink:href="#me2217a4ef7" x="332.91" y="80.389818" style="stroke: #000000; stroke-width: 0.8"/>
      </g>
     </g>
     <g id="text_9">
      <!-- 175 -->
      <g transform="translate(302.554063 85.400287) scale(0.14 -0.14)">
       <defs>
        <path id="ArialMT-37" d="M 303 3981 
L 303 4522 
L 3269 4522 
L 3269 4084 
Q 2831 3619 2401 2847 
Q 1972 2075 1738 1259 
Q 1569 684 1522 0 
L 944 0 
Q 953 541 1156 1306 
Q 1359 2072 1739 2783 
Q 2119 3494 2547 3981 
L 303 3981 
z
" transform="scale(0.015625)"/>
       </defs>
       <use xlink:href="#ArialMT-31"/>
       <use xlink:href="#ArialMT-37" x="55.615234"/>
       <use xlink:href="#ArialMT-35" x="111.230469"/>
      </g>
     </g>
    </g>
    <g id="ytick_4">
     <g id="line2d_6">
      <g>
       <use xlink:href="#me2217a4ef7" x="332.91" y="60.320121" style="stroke: #000000; stroke-width: 0.8"/>
      </g>
     </g>
     <g id="text_10">
      <!-- 200 -->
      <g transform="translate(302.554063 65.33059) scale(0.14 -0.14)">
       <use xlink:href="#ArialMT-32"/>
       <use xlink:href="#ArialMT-30" x="55.615234"/>
       <use xlink:href="#ArialMT-30" x="111.230469"/>
      </g>
     </g>
    </g>
   </g>
   <g id="line2d_7">
    <path d="M 431.63325 76.375879 
L 466.47675 76.375879 
L 466.47675 44.264364 
L 431.63325 44.264364 
L 431.63325 76.375879 
" clip-path="url(#p0c000ababd)" style="fill: none; stroke: #ff7f50; stroke-linecap: square"/>
   </g>
   <g id="line2d_8">
    <path d="M 449.055 76.375879 
L 449.055 92.431636 
" clip-path="url(#p0c000ababd)" style="fill: none; stroke: #ff7f50; stroke-linecap: square"/>
   </g>
   <g id="line2d_9">
    <path d="M 449.055 44.264364 
L 449.055 44.264364 
" clip-path="url(#p0c000ababd)" style="fill: none; stroke: #ff7f50; stroke-linecap: square"/>
   </g>
   <g id="line2d_10">
    <path d="M 440.344125 92.431636 
L 457.765875 92.431636 
" clip-path="url(#p0c000ababd)" style="fill: none; stroke: #ff7f50; stroke-linecap: square"/>
   </g>
   <g id="line2d_11">
    <path d="M 440.344125 44.264364 
L 457.765875 44.264364 
" clip-path="url(#p0c000ababd)" style="fill: none; stroke: #ff7f50; stroke-linecap: square"/>
   </g>
   <g id="line2d_12"/>
   <g id="line2d_13">
    <path d="M 431.63325 60.320121 
L 466.47675 60.320121 
" clip-path="url(#p0c000ababd)" style="fill: none; stroke: #ff7f0e; stroke-linecap: square"/>
   </g>
   <g id="patch_8">
    <path d="M 332.91 94.84 
L 332.91 41.856 
" style="fill: none; stroke: #000000; stroke-width: 0.8; stroke-linejoin: miter; stroke-linecap: square"/>
   </g>
   <g id="patch_9">
    <path d="M 565.2 94.84 
L 565.2 41.856 
" style="fill: none; stroke: #000000; stroke-width: 0.8; stroke-linejoin: miter; stroke-linecap: square"/>
   </g>
   <g id="patch_10">
    <path d="M 332.91 94.84 
L 565.2 94.84 
" style="fill: none; stroke: #000000; stroke-width: 0.8; stroke-linejoin: miter; stroke-linecap: square"/>
   </g>
   <g id="patch_11">
    <path d="M 332.91 41.856 
L 565.2 41.856 
" style="fill: none; stroke: #000000; stroke-width: 0.8; stroke-linejoin: miter; stroke-linecap: square"/>
   </g>
   <g id="text_11">
    <!-- Boxplot -->
    <g transform="translate(425.707812 21.048375) scale(0.14 -0.14)">
     <defs>
      <path id="ArialMT-42" d="M 469 0 
L 469 4581 
L 2188 4581 
Q 2713 4581 3030 4442 
Q 3347 4303 3526 4014 
Q 3706 3725 3706 3409 
Q 3706 3116 3547 2856 
Q 3388 2597 3066 2438 
Q 3481 2316 3704 2022 
Q 3928 1728 3928 1328 
Q 3928 1006 3792 729 
Q 3656 453 3456 303 
Q 3256 153 2954 76 
Q 2653 0 2216 0 
L 469 0 
z
M 1075 2656 
L 2066 2656 
Q 2469 2656 2644 2709 
Q 2875 2778 2992 2937 
Q 3109 3097 3109 3338 
Q 3109 3566 3000 3739 
Q 2891 3913 2687 3977 
Q 2484 4041 1991 4041 
L 1075 4041 
L 1075 2656 
z
M 1075 541 
L 2216 541 
Q 2509 541 2628 563 
Q 2838 600 2978 687 
Q 3119 775 3209 942 
Q 3300 1109 3300 1328 
Q 3300 1584 3169 1773 
Q 3038 1963 2805 2039 
Q 2572 2116 2134 2116 
L 1075 2116 
L 1075 541 
z
" transform="scale(0.015625)"/>
     </defs>
     <use xlink:href="#ArialMT-42"/>
     <use xlink:href="#ArialMT-6f" x="66.699219"/>
     <use xlink:href="#ArialMT-78" x="122.314453"/>
     <use xlink:href="#ArialMT-70" x="172.314453"/>
     <use xlink:href="#ArialMT-6c" x="227.929688"/>
     <use xlink:href="#ArialMT-6f" x="250.146484"/>
     <use xlink:href="#ArialMT-74" x="305.761719"/>
    </g>
    <!-- Min: 160.00, Max: 220.00 -->
    <g transform="translate(370.06875 35.856) scale(0.14 -0.14)">
     <use xlink:href="#ArialMT-4d"/>
     <use xlink:href="#ArialMT-69" x="83.300781"/>
     <use xlink:href="#ArialMT-6e" x="105.517578"/>
     <use xlink:href="#ArialMT-3a" x="161.132812"/>
     <use xlink:href="#ArialMT-20" x="188.916016"/>
     <use xlink:href="#ArialMT-31" x="216.699219"/>
     <use xlink:href="#ArialMT-36" x="272.314453"/>
     <use xlink:href="#ArialMT-30" x="327.929688"/>
     <use xlink:href="#ArialMT-2e" x="383.544922"/>
     <use xlink:href="#ArialMT-30" x="411.328125"/>
     <use xlink:href="#ArialMT-30" x="466.943359"/>
     <use xlink:href="#ArialMT-2c" x="522.558594"/>
     <use xlink:href="#ArialMT-20" x="550.341797"/>
     <use xlink:href="#ArialMT-4d" x="578.125"/>
     <use xlink:href="#ArialMT-61" x="661.425781"/>
     <use xlink:href="#ArialMT-78" x="717.041016"/>
     <use xlink:href="#ArialMT-3a" x="767.041016"/>
     <use xlink:href="#ArialMT-20" x="794.824219"/>
     <use xlink:href="#ArialMT-32" x="822.607422"/>
     <use xlink:href="#ArialMT-32" x="878.222656"/>
     <use xlink:href="#ArialMT-30" x="933.837891"/>
     <use xlink:href="#ArialMT-2e" x="989.453125"/>
     <use xlink:href="#ArialMT-30" x="1017.236328"/>
     <use xlink:href="#ArialMT-30" x="1072.851562"/>
    </g>
   </g>
  </g>
 </g>
 <defs>
  <clipPath id="p82d27b979f">
   <rect x="59.51" y="41.856" width="232.29" height="52.984"/>
  </clipPath>
  <clipPath id="p0c000ababd">
   <rect x="332.91" y="41.856" width="232.29" height="52.984"/>
  </clipPath>
 </defs>
</svg>
