<?xml version="1.0" encoding="utf-8" standalone="no"?>
<!DOCTYPE svg PUBLIC "-//W3C//DTD SVG 1.1//EN"
  "http://www.w3.org/Graphics/SVG/1.1/DTD/svg11.dtd">
<svg xmlns:xlink="http://www.w3.org/1999/xlink" width="576pt" height="144pt" viewBox="0 0 576 144" xmlns="http://www.w3.org/2000/svg" version="1.1">
 <metadata>
  <rdf:RDF xmlns:dc="http://purl.org/dc/elements/1.1/" xmlns:cc="http://creativecommons.org/ns#" xmlns:rdf="http://www.w3.org/1999/02/22-rdf-syntax-ns#">
   <cc:Work>
    <dc:type rdf:resource="http://purl.org/dc/dcmitype/StillImage"/>
    <dc:date>2024-03-24T16:50:08.167925</dc:date>
    <dc:format>image/svg+xml</dc:format>
    <dc:creator>
     <cc:Agent>
      <dc:title>Matplotlib v3.7.1, https://matplotlib.org/</dc:title>
     </cc:Agent>
    </dc:creator>
   </cc:Work>
  </rdf:RDF>
 </metadata>
 <defs>
  <style type="text/css">*{stroke-linejoin: round; stroke-linecap: butt}</style>
 </defs>
 <g id="figure_1">
  <g id="patch_1">
   <path d="M 0 144 
L 576 144 
L 576 0 
L 0 0 
z
" style="fill: #ffffff"/>
  </g>
  <g id="axes_1">
   <g id="patch_2">
    <path d="M 55.64 94.84 
L 297.605 94.84 
L 297.605 41.856 
L 55.64 41.856 
z
" style="fill: #ffffff"/>
   </g>
   <g id="PolyCollection_1">
    <defs>
     <path id="m16efc46808" d="M 189.565981 -51.568364 
L 163.679019 -51.568364 
L 160.923836 -52.054902 
L 157.767552 -52.54144 
L 154.19713 -53.027978 
L 150.210198 -53.514516 
L 145.817137 -54.001054 
L 141.042888 -54.487592 
L 135.928282 -54.97413 
L 130.530742 -55.460669 
L 124.924213 -55.947207 
L 119.198207 -56.433745 
L 113.455894 -56.920283 
L 107.811247 -57.406821 
L 102.385296 -57.893359 
L 97.301621 -58.379897 
L 92.681295 -58.866435 
L 88.63751 -59.352973 
L 85.270206 -59.839511 
L 82.661 -60.32605 
L 80.868737 -60.812588 
L 79.925955 -61.299126 
L 79.8365 -61.785664 
L 80.574469 -62.272202 
L 82.084583 -62.75874 
L 84.283982 -63.245278 
L 87.06539 -63.731816 
L 90.301463 -64.218354 
L 93.850116 -64.704893 
L 97.560546 -65.191431 
L 101.279637 -65.677969 
L 104.858434 -66.164507 
L 108.158376 -66.651045 
L 111.056997 -67.137583 
L 113.452844 -67.624121 
L 115.26941 -68.110659 
L 116.457934 -68.597197 
L 116.99896 -69.083736 
L 116.902618 -69.570274 
L 116.207634 -70.056812 
L 114.979123 -70.54335 
L 113.305267 -71.029888 
L 111.293036 -71.516426 
L 109.063121 -72.002964 
L 106.744304 -72.489502 
L 104.467517 -72.97604 
L 102.359834 -73.462579 
L 100.538693 -73.949117 
L 99.106585 -74.435655 
L 98.146486 -74.922193 
L 97.718227 -75.408731 
L 97.855992 -75.895269 
L 98.567037 -76.381807 
L 99.831717 -76.868345 
L 101.604772 -77.354883 
L 103.817813 -77.841421 
L 106.382861 -78.32796 
L 109.196743 -78.814498 
L 112.146123 -79.301036 
L 115.112894 -79.787574 
L 117.979697 -80.274112 
L 120.635269 -80.76065 
L 122.979421 -81.247188 
L 124.927406 -81.733726 
L 126.413511 -82.220264 
L 127.393746 -82.706803 
L 127.847528 -83.193341 
L 127.778328 -83.679879 
L 127.213255 -84.166417 
L 126.201638 -84.652955 
L 124.812665 -85.139493 
L 123.132189 -85.626031 
L 121.258861 -86.112569 
L 119.299741 -86.599107 
L 117.365602 -87.085646 
L 115.56613 -87.572184 
L 114.005241 -88.058722 
L 112.776746 -88.54526 
L 111.960546 -89.031798 
L 111.619568 -89.518336 
L 111.797557 -90.004874 
L 112.517827 -90.491412 
L 113.783025 -90.97795 
L 115.575866 -91.464489 
L 117.860787 -91.951027 
L 120.586381 -92.437565 
L 123.688444 -92.924103 
L 127.09344 -93.410641 
L 130.722161 -93.897179 
L 134.493387 -94.383717 
L 138.327321 -94.870255 
L 142.148649 -95.356793 
L 145.889087 -95.843331 
L 149.489326 -96.32987 
L 152.900333 -96.816408 
L 156.084014 -97.302946 
L 159.013283 -97.789484 
L 161.671606 -98.276022 
L 164.052126 -98.76256 
L 166.156468 -99.249098 
L 167.993355 -99.735636 
L 185.251645 -99.735636 
L 185.251645 -99.735636 
L 187.088532 -99.249098 
L 189.192874 -98.76256 
L 191.573394 -98.276022 
L 194.231717 -97.789484 
L 197.160986 -97.302946 
L 200.344667 -96.816408 
L 203.755674 -96.32987 
L 207.355913 -95.843331 
L 211.096351 -95.356793 
L 214.917679 -94.870255 
L 218.751613 -94.383717 
L 222.522839 -93.897179 
L 226.15156 -93.410641 
L 229.556556 -92.924103 
L 232.658619 -92.437565 
L 235.384213 -91.951027 
L 237.669134 -91.464489 
L 239.461975 -90.97795 
L 240.727173 -90.491412 
L 241.447443 -90.004874 
L 241.625432 -89.518336 
L 241.284454 -89.031798 
L 240.468254 -88.54526 
L 239.239759 -88.058722 
L 237.67887 -87.572184 
L 235.879398 -87.085646 
L 233.945259 -86.599107 
L 231.986139 -86.112569 
L 230.112811 -85.626031 
L 228.432335 -85.139493 
L 227.043362 -84.652955 
L 226.031745 -84.166417 
L 225.466672 -83.679879 
L 225.397472 -83.193341 
L 225.851254 -82.706803 
L 226.831489 -82.220264 
L 228.317594 -81.733726 
L 230.265579 -81.247188 
L 232.609731 -80.76065 
L 235.265303 -80.274112 
L 238.132106 -79.787574 
L 241.098877 -79.301036 
L 244.048257 -78.814498 
L 246.862139 -78.32796 
L 249.427187 -77.841421 
L 251.640228 -77.354883 
L 253.413283 -76.868345 
L 254.677963 -76.381807 
L 255.389008 -75.895269 
L 255.526773 -75.408731 
L 255.098514 -74.922193 
L 254.138415 -74.435655 
L 252.706307 -73.949117 
L 250.885166 -73.462579 
L 248.777483 -72.97604 
L 246.500696 -72.489502 
L 244.181879 -72.002964 
L 241.951964 -71.516426 
L 239.939733 -71.029888 
L 238.265877 -70.54335 
L 237.037366 -70.056812 
L 236.342382 -69.570274 
L 236.24604 -69.083736 
L 236.787066 -68.597197 
L 237.97559 -68.110659 
L 239.792156 -67.624121 
L 242.188003 -67.137583 
L 245.086624 -66.651045 
L 248.386566 -66.164507 
L 251.965363 -65.677969 
L 255.684454 -65.191431 
L 259.394884 -64.704893 
L 262.943537 -64.218354 
L 266.17961 -63.731816 
L 268.961018 -63.245278 
L 271.160417 -62.75874 
L 272.670531 -62.272202 
L 273.4085 -61.785664 
L 273.319045 -61.299126 
L 272.376263 -60.812588 
L 270.584 -60.32605 
L 267.974794 -59.839511 
L 264.60749 -59.352973 
L 260.563705 -58.866435 
L 255.943379 -58.379897 
L 250.859704 -57.893359 
L 245.433753 -57.406821 
L 239.789106 -56.920283 
L 234.046793 -56.433745 
L 228.320787 -55.947207 
L 222.714258 -55.460669 
L 217.316718 -54.97413 
L 212.202112 -54.487592 
L 207.427863 -54.001054 
L 203.034802 -53.514516 
L 199.04787 -53.027978 
L 195.477448 -52.54144 
L 192.321164 -52.054902 
L 189.565981 -51.568364 
z
" style="stroke: #646464; stroke-width: 1.5"/>
    </defs>
    <g clip-path="url(#pe029bebbd6)">
     <use xlink:href="#m16efc46808" x="0" y="144" style="fill: #e98966; stroke: #646464; stroke-width: 1.5"/>
    </g>
   </g>
   <g id="PathCollection_1">
    <defs>
     <path id="me4d59ff710" d="M 0 1.5 
C 0.397805 1.5 0.77937 1.341951 1.06066 1.06066 
C 1.341951 0.77937 1.5 0.397805 1.5 0 
C 1.5 -0.397805 1.341951 -0.77937 1.06066 -1.06066 
C 0.77937 -1.341951 0.397805 -1.5 0 -1.5 
C -0.397805 -1.5 -0.77937 -1.341951 -1.06066 -1.06066 
C -1.341951 -0.77937 -1.5 -0.397805 -1.5 0 
C -1.5 0.397805 -1.341951 0.77937 -1.06066 1.06066 
C -0.77937 1.341951 -0.397805 1.5 0 1.5 
z
" style="stroke: #646464"/>
    </defs>
    <g clip-path="url(#pe029bebbd6)">
     <use xlink:href="#me4d59ff710" x="176.6225" y="68.348" style="fill: #646464; stroke: #646464"/>
     <use xlink:href="#me4d59ff710" x="176.6225" y="82.595879" style="fill: #646464; stroke: #646464"/>
     <use xlink:href="#me4d59ff710" x="176.6225" y="54.100121" style="fill: #646464; stroke: #646464"/>
     <use xlink:href="#me4d59ff710" x="176.6225" y="82.595879" style="fill: #646464; stroke: #646464"/>
     <use xlink:href="#me4d59ff710" x="176.6225" y="54.100121" style="fill: #646464; stroke: #646464"/>
     <use xlink:href="#me4d59ff710" x="176.6225" y="54.100121" style="fill: #646464; stroke: #646464"/>
     <use xlink:href="#me4d59ff710" x="176.6225" y="82.595879" style="fill: #646464; stroke: #646464"/>
     <use xlink:href="#me4d59ff710" x="176.6225" y="68.348" style="fill: #646464; stroke: #646464"/>
     <use xlink:href="#me4d59ff710" x="176.6225" y="68.348" style="fill: #646464; stroke: #646464"/>
     <use xlink:href="#me4d59ff710" x="176.6225" y="68.348" style="fill: #646464; stroke: #646464"/>
     <use xlink:href="#me4d59ff710" x="176.6225" y="82.595879" style="fill: #646464; stroke: #646464"/>
     <use xlink:href="#me4d59ff710" x="176.6225" y="68.348" style="fill: #646464; stroke: #646464"/>
     <use xlink:href="#me4d59ff710" x="176.6225" y="68.348" style="fill: #646464; stroke: #646464"/>
     <use xlink:href="#me4d59ff710" x="176.6225" y="54.100121" style="fill: #646464; stroke: #646464"/>
     <use xlink:href="#me4d59ff710" x="176.6225" y="54.100121" style="fill: #646464; stroke: #646464"/>
     <use xlink:href="#me4d59ff710" x="176.6225" y="68.348" style="fill: #646464; stroke: #646464"/>
     <use xlink:href="#me4d59ff710" x="176.6225" y="54.100121" style="fill: #646464; stroke: #646464"/>
     <use xlink:href="#me4d59ff710" x="176.6225" y="82.595879" style="fill: #646464; stroke: #646464"/>
     <use xlink:href="#me4d59ff710" x="176.6225" y="54.100121" style="fill: #646464; stroke: #646464"/>
     <use xlink:href="#me4d59ff710" x="176.6225" y="82.595879" style="fill: #646464; stroke: #646464"/>
     <use xlink:href="#me4d59ff710" x="176.6225" y="82.595879" style="fill: #646464; stroke: #646464"/>
     <use xlink:href="#me4d59ff710" x="176.6225" y="82.595879" style="fill: #646464; stroke: #646464"/>
     <use xlink:href="#me4d59ff710" x="176.6225" y="54.100121" style="fill: #646464; stroke: #646464"/>
     <use xlink:href="#me4d59ff710" x="176.6225" y="68.348" style="fill: #646464; stroke: #646464"/>
     <use xlink:href="#me4d59ff710" x="176.6225" y="68.348" style="fill: #646464; stroke: #646464"/>
     <use xlink:href="#me4d59ff710" x="176.6225" y="54.100121" style="fill: #646464; stroke: #646464"/>
     <use xlink:href="#me4d59ff710" x="176.6225" y="68.348" style="fill: #646464; stroke: #646464"/>
     <use xlink:href="#me4d59ff710" x="176.6225" y="54.100121" style="fill: #646464; stroke: #646464"/>
     <use xlink:href="#me4d59ff710" x="176.6225" y="82.595879" style="fill: #646464; stroke: #646464"/>
     <use xlink:href="#me4d59ff710" x="176.6225" y="68.348" style="fill: #646464; stroke: #646464"/>
     <use xlink:href="#me4d59ff710" x="176.6225" y="68.348" style="fill: #646464; stroke: #646464"/>
     <use xlink:href="#me4d59ff710" x="176.6225" y="54.100121" style="fill: #646464; stroke: #646464"/>
     <use xlink:href="#me4d59ff710" x="176.6225" y="68.348" style="fill: #646464; stroke: #646464"/>
     <use xlink:href="#me4d59ff710" x="176.6225" y="82.595879" style="fill: #646464; stroke: #646464"/>
     <use xlink:href="#me4d59ff710" x="176.6225" y="68.348" style="fill: #646464; stroke: #646464"/>
     <use xlink:href="#me4d59ff710" x="176.6225" y="54.100121" style="fill: #646464; stroke: #646464"/>
     <use xlink:href="#me4d59ff710" x="176.6225" y="54.100121" style="fill: #646464; stroke: #646464"/>
     <use xlink:href="#me4d59ff710" x="176.6225" y="54.100121" style="fill: #646464; stroke: #646464"/>
     <use xlink:href="#me4d59ff710" x="176.6225" y="82.595879" style="fill: #646464; stroke: #646464"/>
     <use xlink:href="#me4d59ff710" x="176.6225" y="68.348" style="fill: #646464; stroke: #646464"/>
     <use xlink:href="#me4d59ff710" x="176.6225" y="82.595879" style="fill: #646464; stroke: #646464"/>
     <use xlink:href="#me4d59ff710" x="176.6225" y="68.348" style="fill: #646464; stroke: #646464"/>
     <use xlink:href="#me4d59ff710" x="176.6225" y="68.348" style="fill: #646464; stroke: #646464"/>
     <use xlink:href="#me4d59ff710" x="176.6225" y="82.595879" style="fill: #646464; stroke: #646464"/>
     <use xlink:href="#me4d59ff710" x="176.6225" y="68.348" style="fill: #646464; stroke: #646464"/>
     <use xlink:href="#me4d59ff710" x="176.6225" y="82.595879" style="fill: #646464; stroke: #646464"/>
     <use xlink:href="#me4d59ff710" x="176.6225" y="68.348" style="fill: #646464; stroke: #646464"/>
     <use xlink:href="#me4d59ff710" x="176.6225" y="54.100121" style="fill: #646464; stroke: #646464"/>
     <use xlink:href="#me4d59ff710" x="176.6225" y="82.595879" style="fill: #646464; stroke: #646464"/>
     <use xlink:href="#me4d59ff710" x="176.6225" y="82.595879" style="fill: #646464; stroke: #646464"/>
     <use xlink:href="#me4d59ff710" x="176.6225" y="82.595879" style="fill: #646464; stroke: #646464"/>
     <use xlink:href="#me4d59ff710" x="176.6225" y="68.348" style="fill: #646464; stroke: #646464"/>
     <use xlink:href="#me4d59ff710" x="176.6225" y="82.595879" style="fill: #646464; stroke: #646464"/>
     <use xlink:href="#me4d59ff710" x="176.6225" y="68.348" style="fill: #646464; stroke: #646464"/>
     <use xlink:href="#me4d59ff710" x="176.6225" y="54.100121" style="fill: #646464; stroke: #646464"/>
     <use xlink:href="#me4d59ff710" x="176.6225" y="54.100121" style="fill: #646464; stroke: #646464"/>
     <use xlink:href="#me4d59ff710" x="176.6225" y="54.100121" style="fill: #646464; stroke: #646464"/>
     <use xlink:href="#me4d59ff710" x="176.6225" y="82.595879" style="fill: #646464; stroke: #646464"/>
     <use xlink:href="#me4d59ff710" x="176.6225" y="54.100121" style="fill: #646464; stroke: #646464"/>
     <use xlink:href="#me4d59ff710" x="176.6225" y="68.348" style="fill: #646464; stroke: #646464"/>
     <use xlink:href="#me4d59ff710" x="176.6225" y="68.348" style="fill: #646464; stroke: #646464"/>
     <use xlink:href="#me4d59ff710" x="176.6225" y="82.595879" style="fill: #646464; stroke: #646464"/>
     <use xlink:href="#me4d59ff710" x="176.6225" y="82.595879" style="fill: #646464; stroke: #646464"/>
     <use xlink:href="#me4d59ff710" x="176.6225" y="68.348" style="fill: #646464; stroke: #646464"/>
     <use xlink:href="#me4d59ff710" x="176.6225" y="82.595879" style="fill: #646464; stroke: #646464"/>
     <use xlink:href="#me4d59ff710" x="176.6225" y="82.595879" style="fill: #646464; stroke: #646464"/>
     <use xlink:href="#me4d59ff710" x="176.6225" y="82.595879" style="fill: #646464; stroke: #646464"/>
     <use xlink:href="#me4d59ff710" x="176.6225" y="82.595879" style="fill: #646464; stroke: #646464"/>
     <use xlink:href="#me4d59ff710" x="176.6225" y="82.595879" style="fill: #646464; stroke: #646464"/>
     <use xlink:href="#me4d59ff710" x="176.6225" y="82.595879" style="fill: #646464; stroke: #646464"/>
     <use xlink:href="#me4d59ff710" x="176.6225" y="54.100121" style="fill: #646464; stroke: #646464"/>
     <use xlink:href="#me4d59ff710" x="176.6225" y="82.595879" style="fill: #646464; stroke: #646464"/>
     <use xlink:href="#me4d59ff710" x="176.6225" y="82.595879" style="fill: #646464; stroke: #646464"/>
     <use xlink:href="#me4d59ff710" x="176.6225" y="82.595879" style="fill: #646464; stroke: #646464"/>
    </g>
   </g>
   <g id="matplotlib.axis_1">
    <g id="xtick_1">
     <g id="line2d_1">
      <defs>
       <path id="mcfec1c738f" d="M 0 0 
L 0 3.5 
" style="stroke: #000000; stroke-width: 0.8"/>
      </defs>
      <g>
       <use xlink:href="#mcfec1c738f" x="176.6225" y="94.84" style="stroke: #000000; stroke-width: 0.8"/>
      </g>
     </g>
     <g id="text_1">
      <!-- 0 -->
      <g transform="translate(172.729844 111.860938) scale(0.14 -0.14)">
       <defs>
        <path id="ArialMT-30" d="M 266 2259 
Q 266 3072 433 3567 
Q 600 4063 929 4331 
Q 1259 4600 1759 4600 
Q 2128 4600 2406 4451 
Q 2684 4303 2865 4023 
Q 3047 3744 3150 3342 
Q 3253 2941 3253 2259 
Q 3253 1453 3087 958 
Q 2922 463 2592 192 
Q 2263 -78 1759 -78 
Q 1097 -78 719 397 
Q 266 969 266 2259 
z
M 844 2259 
Q 844 1131 1108 757 
Q 1372 384 1759 384 
Q 2147 384 2411 759 
Q 2675 1134 2675 2259 
Q 2675 3391 2411 3762 
Q 2147 4134 1753 4134 
Q 1366 4134 1134 3806 
Q 844 3388 844 2259 
z
" transform="scale(0.015625)"/>
       </defs>
       <use xlink:href="#ArialMT-30"/>
      </g>
     </g>
    </g>
    <g id="text_2">
     <!-- Time -->
     <g transform="translate(159.14625 130.095937) scale(0.16 -0.16)">
      <defs>
       <path id="ArialMT-54" d="M 1659 0 
L 1659 4041 
L 150 4041 
L 150 4581 
L 3781 4581 
L 3781 4041 
L 2266 4041 
L 2266 0 
L 1659 0 
z
" transform="scale(0.015625)"/>
       <path id="ArialMT-69" d="M 425 3934 
L 425 4581 
L 988 4581 
L 988 3934 
L 425 3934 
z
M 425 0 
L 425 3319 
L 988 3319 
L 988 0 
L 425 0 
z
" transform="scale(0.015625)"/>
       <path id="ArialMT-6d" d="M 422 0 
L 422 3319 
L 925 3319 
L 925 2853 
Q 1081 3097 1340 3245 
Q 1600 3394 1931 3394 
Q 2300 3394 2536 3241 
Q 2772 3088 2869 2813 
Q 3263 3394 3894 3394 
Q 4388 3394 4653 3120 
Q 4919 2847 4919 2278 
L 4919 0 
L 4359 0 
L 4359 2091 
Q 4359 2428 4304 2576 
Q 4250 2725 4106 2815 
Q 3963 2906 3769 2906 
Q 3419 2906 3187 2673 
Q 2956 2441 2956 1928 
L 2956 0 
L 2394 0 
L 2394 2156 
Q 2394 2531 2256 2718 
Q 2119 2906 1806 2906 
Q 1569 2906 1367 2781 
Q 1166 2656 1075 2415 
Q 984 2175 984 1722 
L 984 0 
L 422 0 
z
" transform="scale(0.015625)"/>
       <path id="ArialMT-65" d="M 2694 1069 
L 3275 997 
Q 3138 488 2766 206 
Q 2394 -75 1816 -75 
Q 1088 -75 661 373 
Q 234 822 234 1631 
Q 234 2469 665 2931 
Q 1097 3394 1784 3394 
Q 2450 3394 2872 2941 
Q 3294 2488 3294 1666 
Q 3294 1616 3291 1516 
L 816 1516 
Q 847 969 1125 678 
Q 1403 388 1819 388 
Q 2128 388 2347 550 
Q 2566 713 2694 1069 
z
M 847 1978 
L 2700 1978 
Q 2663 2397 2488 2606 
Q 2219 2931 1791 2931 
Q 1403 2931 1139 2672 
Q 875 2413 847 1978 
z
" transform="scale(0.015625)"/>
      </defs>
      <use xlink:href="#ArialMT-54"/>
      <use xlink:href="#ArialMT-69" x="57.333984"/>
      <use xlink:href="#ArialMT-6d" x="79.550781"/>
      <use xlink:href="#ArialMT-65" x="162.851562"/>
     </g>
    </g>
   </g>
   <g id="matplotlib.axis_2">
    <g id="ytick_1">
     <g id="line2d_2">
      <defs>
       <path id="mda8546f92f" d="M 0 0 
L -3.5 0 
" style="stroke: #000000; stroke-width: 0.8"/>
      </defs>
      <g>
       <use xlink:href="#mda8546f92f" x="55.64" y="93.281788" style="stroke: #000000; stroke-width: 0.8"/>
      </g>
     </g>
     <g id="text_3">
      <!-- 2.5 -->
      <g transform="translate(29.18 98.292256) scale(0.14 -0.14)">
       <defs>
        <path id="ArialMT-32" d="M 3222 541 
L 3222 0 
L 194 0 
Q 188 203 259 391 
Q 375 700 629 1000 
Q 884 1300 1366 1694 
Q 2113 2306 2375 2664 
Q 2638 3022 2638 3341 
Q 2638 3675 2398 3904 
Q 2159 4134 1775 4134 
Q 1369 4134 1125 3890 
Q 881 3647 878 3216 
L 300 3275 
Q 359 3922 746 4261 
Q 1134 4600 1788 4600 
Q 2447 4600 2831 4234 
Q 3216 3869 3216 3328 
Q 3216 3053 3103 2787 
Q 2991 2522 2730 2228 
Q 2469 1934 1863 1422 
Q 1356 997 1212 845 
Q 1069 694 975 541 
L 3222 541 
z
" transform="scale(0.015625)"/>
        <path id="ArialMT-2e" d="M 581 0 
L 581 641 
L 1222 641 
L 1222 0 
L 581 0 
z
" transform="scale(0.015625)"/>
        <path id="ArialMT-35" d="M 266 1200 
L 856 1250 
Q 922 819 1161 601 
Q 1400 384 1738 384 
Q 2144 384 2425 690 
Q 2706 997 2706 1503 
Q 2706 1984 2436 2262 
Q 2166 2541 1728 2541 
Q 1456 2541 1237 2417 
Q 1019 2294 894 2097 
L 366 2166 
L 809 4519 
L 3088 4519 
L 3088 3981 
L 1259 3981 
L 1013 2750 
Q 1425 3038 1878 3038 
Q 2478 3038 2890 2622 
Q 3303 2206 3303 1553 
Q 3303 931 2941 478 
Q 2500 -78 1738 -78 
Q 1113 -78 717 272 
Q 322 622 266 1200 
z
" transform="scale(0.015625)"/>
       </defs>
       <use xlink:href="#ArialMT-32"/>
       <use xlink:href="#ArialMT-2e" x="55.615234"/>
       <use xlink:href="#ArialMT-35" x="83.398438"/>
      </g>
     </g>
    </g>
    <g id="ytick_2">
     <g id="line2d_3">
      <g>
       <use xlink:href="#mda8546f92f" x="55.64" y="75.471939" style="stroke: #000000; stroke-width: 0.8"/>
      </g>
     </g>
     <g id="text_4">
      <!-- 5.0 -->
      <g transform="translate(29.18 80.482408) scale(0.14 -0.14)">
       <use xlink:href="#ArialMT-35"/>
       <use xlink:href="#ArialMT-2e" x="55.615234"/>
       <use xlink:href="#ArialMT-30" x="83.398438"/>
      </g>
     </g>
    </g>
    <g id="ytick_3">
     <g id="line2d_4">
      <g>
       <use xlink:href="#mda8546f92f" x="55.64" y="57.662091" style="stroke: #000000; stroke-width: 0.8"/>
      </g>
     </g>
     <g id="text_5">
      <!-- 7.5 -->
      <g transform="translate(29.18 62.67256) scale(0.14 -0.14)">
       <defs>
        <path id="ArialMT-37" d="M 303 3981 
L 303 4522 
L 3269 4522 
L 3269 4084 
Q 2831 3619 2401 2847 
Q 1972 2075 1738 1259 
Q 1569 684 1522 0 
L 944 0 
Q 953 541 1156 1306 
Q 1359 2072 1739 2783 
Q 2119 3494 2547 3981 
L 303 3981 
z
" transform="scale(0.015625)"/>
       </defs>
       <use xlink:href="#ArialMT-37"/>
       <use xlink:href="#ArialMT-2e" x="55.615234"/>
       <use xlink:href="#ArialMT-35" x="83.398438"/>
      </g>
     </g>
    </g>
    <g id="text_6">
     <!-- h -->
     <g transform="translate(22 72.79675) rotate(-90) scale(0.16 -0.16)">
      <defs>
       <path id="ArialMT-68" d="M 422 0 
L 422 4581 
L 984 4581 
L 984 2938 
Q 1378 3394 1978 3394 
Q 2347 3394 2619 3248 
Q 2891 3103 3008 2847 
Q 3125 2591 3125 2103 
L 3125 0 
L 2563 0 
L 2563 2103 
Q 2563 2525 2380 2717 
Q 2197 2909 1863 2909 
Q 1613 2909 1392 2779 
Q 1172 2650 1078 2428 
Q 984 2206 984 1816 
L 984 0 
L 422 0 
z
" transform="scale(0.015625)"/>
      </defs>
      <use xlink:href="#ArialMT-68"/>
     </g>
    </g>
   </g>
   <g id="patch_3">
    <path d="M 55.64 94.84 
L 55.64 41.856 
" style="fill: none; stroke: #000000; stroke-width: 0.8; stroke-linejoin: miter; stroke-linecap: square"/>
   </g>
   <g id="patch_4">
    <path d="M 297.605 94.84 
L 297.605 41.856 
" style="fill: none; stroke: #000000; stroke-width: 0.8; stroke-linejoin: miter; stroke-linecap: square"/>
   </g>
   <g id="patch_5">
    <path d="M 55.64 94.84 
L 297.605 94.84 
" style="fill: none; stroke: #000000; stroke-width: 0.8; stroke-linejoin: miter; stroke-linecap: square"/>
   </g>
   <g id="patch_6">
    <path d="M 55.64 41.856 
L 297.605 41.856 
" style="fill: none; stroke: #000000; stroke-width: 0.8; stroke-linejoin: miter; stroke-linecap: square"/>
   </g>
   <g id="text_7">
    <!-- Violin plot -->
    <g transform="translate(146.394531 21.048375) scale(0.14 -0.14)">
     <defs>
      <path id="ArialMT-56" d="M 1803 0 
L 28 4581 
L 684 4581 
L 1875 1253 
Q 2019 853 2116 503 
Q 2222 878 2363 1253 
L 3600 4581 
L 4219 4581 
L 2425 0 
L 1803 0 
z
" transform="scale(0.015625)"/>
      <path id="ArialMT-6f" d="M 213 1659 
Q 213 2581 725 3025 
Q 1153 3394 1769 3394 
Q 2453 3394 2887 2945 
Q 3322 2497 3322 1706 
Q 3322 1066 3130 698 
Q 2938 331 2570 128 
Q 2203 -75 1769 -75 
Q 1072 -75 642 372 
Q 213 819 213 1659 
z
M 791 1659 
Q 791 1022 1069 705 
Q 1347 388 1769 388 
Q 2188 388 2466 706 
Q 2744 1025 2744 1678 
Q 2744 2294 2464 2611 
Q 2184 2928 1769 2928 
Q 1347 2928 1069 2612 
Q 791 2297 791 1659 
z
" transform="scale(0.015625)"/>
      <path id="ArialMT-6c" d="M 409 0 
L 409 4581 
L 972 4581 
L 972 0 
L 409 0 
z
" transform="scale(0.015625)"/>
      <path id="ArialMT-6e" d="M 422 0 
L 422 3319 
L 928 3319 
L 928 2847 
Q 1294 3394 1984 3394 
Q 2284 3394 2536 3286 
Q 2788 3178 2913 3003 
Q 3038 2828 3088 2588 
Q 3119 2431 3119 2041 
L 3119 0 
L 2556 0 
L 2556 2019 
Q 2556 2363 2490 2533 
Q 2425 2703 2258 2804 
Q 2091 2906 1866 2906 
Q 1506 2906 1245 2678 
Q 984 2450 984 1813 
L 984 0 
L 422 0 
z
" transform="scale(0.015625)"/>
      <path id="ArialMT-20" transform="scale(0.015625)"/>
      <path id="ArialMT-70" d="M 422 -1272 
L 422 3319 
L 934 3319 
L 934 2888 
Q 1116 3141 1344 3267 
Q 1572 3394 1897 3394 
Q 2322 3394 2647 3175 
Q 2972 2956 3137 2557 
Q 3303 2159 3303 1684 
Q 3303 1175 3120 767 
Q 2938 359 2589 142 
Q 2241 -75 1856 -75 
Q 1575 -75 1351 44 
Q 1128 163 984 344 
L 984 -1272 
L 422 -1272 
z
M 931 1641 
Q 931 1000 1190 694 
Q 1450 388 1819 388 
Q 2194 388 2461 705 
Q 2728 1022 2728 1688 
Q 2728 2322 2467 2637 
Q 2206 2953 1844 2953 
Q 1484 2953 1207 2617 
Q 931 2281 931 1641 
z
" transform="scale(0.015625)"/>
      <path id="ArialMT-74" d="M 1650 503 
L 1731 6 
Q 1494 -44 1306 -44 
Q 1000 -44 831 53 
Q 663 150 594 308 
Q 525 466 525 972 
L 525 2881 
L 113 2881 
L 113 3319 
L 525 3319 
L 525 4141 
L 1084 4478 
L 1084 3319 
L 1650 3319 
L 1650 2881 
L 1084 2881 
L 1084 941 
Q 1084 700 1114 631 
Q 1144 563 1211 522 
Q 1278 481 1403 481 
Q 1497 481 1650 503 
z
" transform="scale(0.015625)"/>
     </defs>
     <use xlink:href="#ArialMT-56"/>
     <use xlink:href="#ArialMT-69" x="64.949219"/>
     <use xlink:href="#ArialMT-6f" x="87.166016"/>
     <use xlink:href="#ArialMT-6c" x="142.78125"/>
     <use xlink:href="#ArialMT-69" x="164.998047"/>
     <use xlink:href="#ArialMT-6e" x="187.214844"/>
     <use xlink:href="#ArialMT-20" x="242.830078"/>
     <use xlink:href="#ArialMT-70" x="270.613281"/>
     <use xlink:href="#ArialMT-6c" x="326.228516"/>
     <use xlink:href="#ArialMT-6f" x="348.445312"/>
     <use xlink:href="#ArialMT-74" x="404.060547"/>
    </g>
    <!-- Min: 4.00, Max: 8.00 -->
    <g transform="translate(113.206875 35.856) scale(0.14 -0.14)">
     <defs>
      <path id="ArialMT-4d" d="M 475 0 
L 475 4581 
L 1388 4581 
L 2472 1338 
Q 2622 884 2691 659 
Q 2769 909 2934 1394 
L 4031 4581 
L 4847 4581 
L 4847 0 
L 4263 0 
L 4263 3834 
L 2931 0 
L 2384 0 
L 1059 3900 
L 1059 0 
L 475 0 
z
" transform="scale(0.015625)"/>
      <path id="ArialMT-3a" d="M 578 2678 
L 578 3319 
L 1219 3319 
L 1219 2678 
L 578 2678 
z
M 578 0 
L 578 641 
L 1219 641 
L 1219 0 
L 578 0 
z
" transform="scale(0.015625)"/>
      <path id="ArialMT-34" d="M 2069 0 
L 2069 1097 
L 81 1097 
L 81 1613 
L 2172 4581 
L 2631 4581 
L 2631 1613 
L 3250 1613 
L 3250 1097 
L 2631 1097 
L 2631 0 
L 2069 0 
z
M 2069 1613 
L 2069 3678 
L 634 1613 
L 2069 1613 
z
" transform="scale(0.015625)"/>
      <path id="ArialMT-2c" d="M 569 0 
L 569 641 
L 1209 641 
L 1209 0 
Q 1209 -353 1084 -570 
Q 959 -788 688 -906 
L 531 -666 
Q 709 -588 793 -436 
Q 878 -284 888 0 
L 569 0 
z
" transform="scale(0.015625)"/>
      <path id="ArialMT-61" d="M 2588 409 
Q 2275 144 1986 34 
Q 1697 -75 1366 -75 
Q 819 -75 525 192 
Q 231 459 231 875 
Q 231 1119 342 1320 
Q 453 1522 633 1644 
Q 813 1766 1038 1828 
Q 1203 1872 1538 1913 
Q 2219 1994 2541 2106 
Q 2544 2222 2544 2253 
Q 2544 2597 2384 2738 
Q 2169 2928 1744 2928 
Q 1347 2928 1158 2789 
Q 969 2650 878 2297 
L 328 2372 
Q 403 2725 575 2942 
Q 747 3159 1072 3276 
Q 1397 3394 1825 3394 
Q 2250 3394 2515 3294 
Q 2781 3194 2906 3042 
Q 3031 2891 3081 2659 
Q 3109 2516 3109 2141 
L 3109 1391 
Q 3109 606 3145 398 
Q 3181 191 3288 0 
L 2700 0 
Q 2613 175 2588 409 
z
M 2541 1666 
Q 2234 1541 1622 1453 
Q 1275 1403 1131 1340 
Q 988 1278 909 1158 
Q 831 1038 831 891 
Q 831 666 1001 516 
Q 1172 366 1500 366 
Q 1825 366 2078 508 
Q 2331 650 2450 897 
Q 2541 1088 2541 1459 
L 2541 1666 
z
" transform="scale(0.015625)"/>
      <path id="ArialMT-78" d="M 47 0 
L 1259 1725 
L 138 3319 
L 841 3319 
L 1350 2541 
Q 1494 2319 1581 2169 
Q 1719 2375 1834 2534 
L 2394 3319 
L 3066 3319 
L 1919 1756 
L 3153 0 
L 2463 0 
L 1781 1031 
L 1600 1309 
L 728 0 
L 47 0 
z
" transform="scale(0.015625)"/>
      <path id="ArialMT-38" d="M 1131 2484 
Q 781 2613 612 2850 
Q 444 3088 444 3419 
Q 444 3919 803 4259 
Q 1163 4600 1759 4600 
Q 2359 4600 2725 4251 
Q 3091 3903 3091 3403 
Q 3091 3084 2923 2848 
Q 2756 2613 2416 2484 
Q 2838 2347 3058 2040 
Q 3278 1734 3278 1309 
Q 3278 722 2862 322 
Q 2447 -78 1769 -78 
Q 1091 -78 675 323 
Q 259 725 259 1325 
Q 259 1772 486 2073 
Q 713 2375 1131 2484 
z
M 1019 3438 
Q 1019 3113 1228 2906 
Q 1438 2700 1772 2700 
Q 2097 2700 2305 2904 
Q 2513 3109 2513 3406 
Q 2513 3716 2298 3927 
Q 2084 4138 1766 4138 
Q 1444 4138 1231 3931 
Q 1019 3725 1019 3438 
z
M 838 1322 
Q 838 1081 952 856 
Q 1066 631 1291 507 
Q 1516 384 1775 384 
Q 2178 384 2440 643 
Q 2703 903 2703 1303 
Q 2703 1709 2433 1975 
Q 2163 2241 1756 2241 
Q 1359 2241 1098 1978 
Q 838 1716 838 1322 
z
" transform="scale(0.015625)"/>
     </defs>
     <use xlink:href="#ArialMT-4d"/>
     <use xlink:href="#ArialMT-69" x="83.300781"/>
     <use xlink:href="#ArialMT-6e" x="105.517578"/>
     <use xlink:href="#ArialMT-3a" x="161.132812"/>
     <use xlink:href="#ArialMT-20" x="188.916016"/>
     <use xlink:href="#ArialMT-34" x="216.699219"/>
     <use xlink:href="#ArialMT-2e" x="272.314453"/>
     <use xlink:href="#ArialMT-30" x="300.097656"/>
     <use xlink:href="#ArialMT-30" x="355.712891"/>
     <use xlink:href="#ArialMT-2c" x="411.328125"/>
     <use xlink:href="#ArialMT-20" x="439.111328"/>
     <use xlink:href="#ArialMT-4d" x="466.894531"/>
     <use xlink:href="#ArialMT-61" x="550.195312"/>
     <use xlink:href="#ArialMT-78" x="605.810547"/>
     <use xlink:href="#ArialMT-3a" x="655.810547"/>
     <use xlink:href="#ArialMT-20" x="683.59375"/>
     <use xlink:href="#ArialMT-38" x="711.376953"/>
     <use xlink:href="#ArialMT-2e" x="766.992188"/>
     <use xlink:href="#ArialMT-30" x="794.775391"/>
     <use xlink:href="#ArialMT-30" x="850.390625"/>
    </g>
   </g>
  </g>
  <g id="axes_2">
   <g id="patch_7">
    <path d="M 323.235 94.84 
L 565.2 94.84 
L 565.2 41.856 
L 323.235 41.856 
z
" style="fill: #ffffff"/>
   </g>
   <g id="matplotlib.axis_3">
    <g id="xtick_2">
     <g id="line2d_5">
      <g>
       <use xlink:href="#mcfec1c738f" x="444.2175" y="94.84" style="stroke: #000000; stroke-width: 0.8"/>
      </g>
     </g>
     <g id="text_8">
      <!-- 1 -->
      <g transform="translate(440.324844 111.860938) scale(0.14 -0.14)">
       <defs>
        <path id="ArialMT-31" d="M 2384 0 
L 1822 0 
L 1822 3584 
Q 1619 3391 1289 3197 
Q 959 3003 697 2906 
L 697 3450 
Q 1169 3672 1522 3987 
Q 1875 4303 2022 4600 
L 2384 4600 
L 2384 0 
z
" transform="scale(0.015625)"/>
       </defs>
       <use xlink:href="#ArialMT-31"/>
      </g>
     </g>
    </g>
    <g id="text_9">
     <!-- Time -->
     <g transform="translate(426.74125 130.095937) scale(0.16 -0.16)">
      <use xlink:href="#ArialMT-54"/>
      <use xlink:href="#ArialMT-69" x="57.333984"/>
      <use xlink:href="#ArialMT-6d" x="79.550781"/>
      <use xlink:href="#ArialMT-65" x="162.851562"/>
     </g>
    </g>
   </g>
   <g id="matplotlib.axis_4">
    <g id="ytick_4">
     <g id="line2d_6">
      <g>
       <use xlink:href="#mda8546f92f" x="323.235" y="80.389818" style="stroke: #000000; stroke-width: 0.8"/>
      </g>
     </g>
     <g id="text_10">
      <!-- 5.0 -->
      <g transform="translate(296.775 85.400287) scale(0.14 -0.14)">
       <use xlink:href="#ArialMT-35"/>
       <use xlink:href="#ArialMT-2e" x="55.615234"/>
       <use xlink:href="#ArialMT-30" x="83.398438"/>
      </g>
     </g>
    </g>
    <g id="ytick_5">
     <g id="line2d_7">
      <g>
       <use xlink:href="#mda8546f92f" x="323.235" y="50.285273" style="stroke: #000000; stroke-width: 0.8"/>
      </g>
     </g>
     <g id="text_11">
      <!-- 7.5 -->
      <g transform="translate(296.775 55.295741) scale(0.14 -0.14)">
       <use xlink:href="#ArialMT-37"/>
       <use xlink:href="#ArialMT-2e" x="55.615234"/>
       <use xlink:href="#ArialMT-35" x="83.398438"/>
      </g>
     </g>
    </g>
   </g>
   <g id="line2d_8">
    <path d="M 426.070125 92.431636 
L 462.364875 92.431636 
L 462.364875 44.264364 
L 426.070125 44.264364 
L 426.070125 92.431636 
" clip-path="url(#paa61f6ea88)" style="fill: none; stroke: #ff7f50; stroke-linecap: square"/>
   </g>
   <g id="line2d_9">
    <path d="M 444.2175 92.431636 
L 444.2175 92.431636 
" clip-path="url(#paa61f6ea88)" style="fill: none; stroke: #ff7f50; stroke-linecap: square"/>
   </g>
   <g id="line2d_10">
    <path d="M 444.2175 44.264364 
L 444.2175 44.264364 
" clip-path="url(#paa61f6ea88)" style="fill: none; stroke: #ff7f50; stroke-linecap: square"/>
   </g>
   <g id="line2d_11">
    <path d="M 435.143812 92.431636 
L 453.291187 92.431636 
" clip-path="url(#paa61f6ea88)" style="fill: none; stroke: #ff7f50; stroke-linecap: square"/>
   </g>
   <g id="line2d_12">
    <path d="M 435.143812 44.264364 
L 453.291187 44.264364 
" clip-path="url(#paa61f6ea88)" style="fill: none; stroke: #ff7f50; stroke-linecap: square"/>
   </g>
   <g id="line2d_13"/>
   <g id="line2d_14">
    <path d="M 426.070125 68.348 
L 462.364875 68.348 
" clip-path="url(#paa61f6ea88)" style="fill: none; stroke: #ff7f0e; stroke-linecap: square"/>
   </g>
   <g id="patch_8">
    <path d="M 323.235 94.84 
L 323.235 41.856 
" style="fill: none; stroke: #000000; stroke-width: 0.8; stroke-linejoin: miter; stroke-linecap: square"/>
   </g>
   <g id="patch_9">
    <path d="M 565.2 94.84 
L 565.2 41.856 
" style="fill: none; stroke: #000000; stroke-width: 0.8; stroke-linejoin: miter; stroke-linecap: square"/>
   </g>
   <g id="patch_10">
    <path d="M 323.235 94.84 
L 565.2 94.84 
" style="fill: none; stroke: #000000; stroke-width: 0.8; stroke-linejoin: miter; stroke-linecap: square"/>
   </g>
   <g id="patch_11">
    <path d="M 323.235 41.856 
L 565.2 41.856 
" style="fill: none; stroke: #000000; stroke-width: 0.8; stroke-linejoin: miter; stroke-linecap: square"/>
   </g>
   <g id="text_12">
    <!-- Boxplot -->
    <g transform="translate(420.870312 21.048375) scale(0.14 -0.14)">
     <defs>
      <path id="ArialMT-42" d="M 469 0 
L 469 4581 
L 2188 4581 
Q 2713 4581 3030 4442 
Q 3347 4303 3526 4014 
Q 3706 3725 3706 3409 
Q 3706 3116 3547 2856 
Q 3388 2597 3066 2438 
Q 3481 2316 3704 2022 
Q 3928 1728 3928 1328 
Q 3928 1006 3792 729 
Q 3656 453 3456 303 
Q 3256 153 2954 76 
Q 2653 0 2216 0 
L 469 0 
z
M 1075 2656 
L 2066 2656 
Q 2469 2656 2644 2709 
Q 2875 2778 2992 2937 
Q 3109 3097 3109 3338 
Q 3109 3566 3000 3739 
Q 2891 3913 2687 3977 
Q 2484 4041 1991 4041 
L 1075 4041 
L 1075 2656 
z
M 1075 541 
L 2216 541 
Q 2509 541 2628 563 
Q 2838 600 2978 687 
Q 3119 775 3209 942 
Q 3300 1109 3300 1328 
Q 3300 1584 3169 1773 
Q 3038 1963 2805 2039 
Q 2572 2116 2134 2116 
L 1075 2116 
L 1075 541 
z
" transform="scale(0.015625)"/>
     </defs>
     <use xlink:href="#ArialMT-42"/>
     <use xlink:href="#ArialMT-6f" x="66.699219"/>
     <use xlink:href="#ArialMT-78" x="122.314453"/>
     <use xlink:href="#ArialMT-70" x="172.314453"/>
     <use xlink:href="#ArialMT-6c" x="227.929688"/>
     <use xlink:href="#ArialMT-6f" x="250.146484"/>
     <use xlink:href="#ArialMT-74" x="305.761719"/>
    </g>
    <!-- Min: 4.00, Max: 8.00 -->
    <g transform="translate(380.801875 35.856) scale(0.14 -0.14)">
     <use xlink:href="#ArialMT-4d"/>
     <use xlink:href="#ArialMT-69" x="83.300781"/>
     <use xlink:href="#ArialMT-6e" x="105.517578"/>
     <use xlink:href="#ArialMT-3a" x="161.132812"/>
     <use xlink:href="#ArialMT-20" x="188.916016"/>
     <use xlink:href="#ArialMT-34" x="216.699219"/>
     <use xlink:href="#ArialMT-2e" x="272.314453"/>
     <use xlink:href="#ArialMT-30" x="300.097656"/>
     <use xlink:href="#ArialMT-30" x="355.712891"/>
     <use xlink:href="#ArialMT-2c" x="411.328125"/>
     <use xlink:href="#ArialMT-20" x="439.111328"/>
     <use xlink:href="#ArialMT-4d" x="466.894531"/>
     <use xlink:href="#ArialMT-61" x="550.195312"/>
     <use xlink:href="#ArialMT-78" x="605.810547"/>
     <use xlink:href="#ArialMT-3a" x="655.810547"/>
     <use xlink:href="#ArialMT-20" x="683.59375"/>
     <use xlink:href="#ArialMT-38" x="711.376953"/>
     <use xlink:href="#ArialMT-2e" x="766.992188"/>
     <use xlink:href="#ArialMT-30" x="794.775391"/>
     <use xlink:href="#ArialMT-30" x="850.390625"/>
    </g>
   </g>
  </g>
 </g>
 <defs>
  <clipPath id="pe029bebbd6">
   <rect x="55.64" y="41.856" width="241.965" height="52.984"/>
  </clipPath>
  <clipPath id="paa61f6ea88">
   <rect x="323.235" y="41.856" width="241.965" height="52.984"/>
  </clipPath>
 </defs>
</svg>
