<?xml version="1.0" encoding="utf-8" standalone="no"?>
<!DOCTYPE svg PUBLIC "-//W3C//DTD SVG 1.1//EN"
  "http://www.w3.org/Graphics/SVG/1.1/DTD/svg11.dtd">
<svg xmlns:xlink="http://www.w3.org/1999/xlink" width="576pt" height="144pt" viewBox="0 0 576 144" xmlns="http://www.w3.org/2000/svg" version="1.1">
 <metadata>
  <rdf:RDF xmlns:dc="http://purl.org/dc/elements/1.1/" xmlns:cc="http://creativecommons.org/ns#" xmlns:rdf="http://www.w3.org/1999/02/22-rdf-syntax-ns#">
   <cc:Work>
    <dc:type rdf:resource="http://purl.org/dc/dcmitype/StillImage"/>
    <dc:date>2024-03-24T16:49:25.903169</dc:date>
    <dc:format>image/svg+xml</dc:format>
    <dc:creator>
     <cc:Agent>
      <dc:title>Matplotlib v3.7.1, https://matplotlib.org/</dc:title>
     </cc:Agent>
    </dc:creator>
   </cc:Work>
  </rdf:RDF>
 </metadata>
 <defs>
  <style type="text/css">*{stroke-linejoin: round; stroke-linecap: butt}</style>
 </defs>
 <g id="figure_1">
  <g id="patch_1">
   <path d="M 0 144 
L 576 144 
L 576 0 
L 0 0 
z
" style="fill: #ffffff"/>
  </g>
  <g id="axes_1">
   <g id="patch_2">
    <path d="M 51.68 94.84 
L 291.8 94.84 
L 291.8 41.856 
L 51.68 41.856 
z
" style="fill: #ffffff"/>
   </g>
   <g id="PolyCollection_1">
    <defs>
     <path id="m44f7e416d2" d="M 172.810278 -51.568364 
L 170.669722 -51.568364 
L 170.260094 -52.054902 
L 169.721522 -52.54144 
L 169.024325 -53.027978 
L 168.135817 -53.514516 
L 167.02128 -54.001054 
L 165.645374 -54.487592 
L 163.973982 -54.97413 
L 161.976404 -55.460669 
L 159.627772 -55.947207 
L 156.911478 -56.433745 
L 153.821369 -56.920283 
L 150.363426 -57.406821 
L 146.556682 -57.893359 
L 142.433162 -58.379897 
L 138.03677 -58.866435 
L 133.421159 -59.352973 
L 128.646801 -59.839511 
L 123.777603 -60.32605 
L 118.87752 -60.812588 
L 114.007663 -61.299126 
L 109.22434 -61.785664 
L 104.578318 -62.272202 
L 100.115403 -62.75874 
L 95.878161 -63.245278 
L 91.908381 -63.731816 
L 88.249666 -64.218354 
L 84.949489 -64.704893 
L 82.060066 -65.191431 
L 79.637588 -65.677969 
L 77.73962 -66.164507 
L 76.420836 -66.651045 
L 75.727579 -67.137583 
L 75.692 -67.624121 
L 76.326693 -68.110659 
L 77.620711 -68.597197 
L 79.537704 -69.083736 
L 82.016603 -69.570274 
L 84.974907 -70.056812 
L 88.314242 -70.54335 
L 91.92752 -71.029888 
L 95.706812 -71.516426 
L 99.550951 -72.002964 
L 103.371988 -72.489502 
L 107.099798 -72.97604 
L 110.684454 -73.462579 
L 114.096309 -73.949117 
L 117.324045 -74.435655 
L 120.371182 -74.922193 
L 123.251687 -75.408731 
L 125.985346 -75.895269 
L 128.593475 -76.381807 
L 131.095416 -76.868345 
L 133.506055 -77.354883 
L 135.834414 -77.841421 
L 138.083208 -78.32796 
L 140.249171 -78.814498 
L 142.323898 -79.301036 
L 144.294963 -79.787574 
L 146.147148 -80.274112 
L 147.86367 -80.76065 
L 149.427354 -81.247188 
L 150.821771 -81.733726 
L 152.032343 -82.220264 
L 153.047434 -82.706803 
L 153.859392 -83.193341 
L 154.465488 -83.679879 
L 154.868677 -84.166417 
L 155.078073 -84.652955 
L 155.109078 -85.139493 
L 154.98312 -85.626031 
L 154.727 -86.112569 
L 154.37192 -86.599107 
L 153.952265 -87.085646 
L 153.504247 -87.572184 
L 153.064525 -88.058722 
L 152.668868 -88.54526 
L 152.350905 -89.031798 
L 152.141002 -89.518336 
L 152.065229 -90.004874 
L 152.144437 -90.491412 
L 152.393446 -90.97795 
L 152.820356 -91.464489 
L 153.426069 -91.951027 
L 154.204068 -92.437565 
L 155.140557 -92.924103 
L 156.215012 -93.410641 
L 157.401162 -93.897179 
L 158.668391 -94.383717 
L 159.983453 -94.870255 
L 161.312381 -95.356793 
L 162.622412 -95.843331 
L 163.883765 -96.32987 
L 165.071106 -96.816408 
L 166.164582 -97.302946 
L 167.150363 -97.789484 
L 168.020696 -98.276022 
L 168.7735 -98.76256 
L 169.411622 -99.249098 
L 169.941852 -99.735636 
L 173.538148 -99.735636 
L 173.538148 -99.735636 
L 174.068378 -99.249098 
L 174.7065 -98.76256 
L 175.459304 -98.276022 
L 176.329637 -97.789484 
L 177.315418 -97.302946 
L 178.408894 -96.816408 
L 179.596235 -96.32987 
L 180.857588 -95.843331 
L 182.167619 -95.356793 
L 183.496547 -94.870255 
L 184.811609 -94.383717 
L 186.078838 -93.897179 
L 187.264988 -93.410641 
L 188.339443 -92.924103 
L 189.275932 -92.437565 
L 190.053931 -91.951027 
L 190.659644 -91.464489 
L 191.086554 -90.97795 
L 191.335563 -90.491412 
L 191.414771 -90.004874 
L 191.338998 -89.518336 
L 191.129095 -89.031798 
L 190.811132 -88.54526 
L 190.415475 -88.058722 
L 189.975753 -87.572184 
L 189.527735 -87.085646 
L 189.10808 -86.599107 
L 188.753 -86.112569 
L 188.49688 -85.626031 
L 188.370922 -85.139493 
L 188.401927 -84.652955 
L 188.611323 -84.166417 
L 189.014512 -83.679879 
L 189.620608 -83.193341 
L 190.432566 -82.706803 
L 191.447657 -82.220264 
L 192.658229 -81.733726 
L 194.052646 -81.247188 
L 195.61633 -80.76065 
L 197.332852 -80.274112 
L 199.185037 -79.787574 
L 201.156102 -79.301036 
L 203.230829 -78.814498 
L 205.396792 -78.32796 
L 207.645586 -77.841421 
L 209.973945 -77.354883 
L 212.384584 -76.868345 
L 214.886525 -76.381807 
L 217.494654 -75.895269 
L 220.228313 -75.408731 
L 223.108818 -74.922193 
L 226.155955 -74.435655 
L 229.383691 -73.949117 
L 232.795546 -73.462579 
L 236.380202 -72.97604 
L 240.108012 -72.489502 
L 243.929049 -72.002964 
L 247.773188 -71.516426 
L 251.55248 -71.029888 
L 255.165758 -70.54335 
L 258.505093 -70.056812 
L 261.463397 -69.570274 
L 263.942296 -69.083736 
L 265.859289 -68.597197 
L 267.153307 -68.110659 
L 267.788 -67.624121 
L 267.752421 -67.137583 
L 267.059164 -66.651045 
L 265.74038 -66.164507 
L 263.842412 -65.677969 
L 261.419934 -65.191431 
L 258.530511 -64.704893 
L 255.230334 -64.218354 
L 251.571619 -63.731816 
L 247.601839 -63.245278 
L 243.364597 -62.75874 
L 238.901682 -62.272202 
L 234.25566 -61.785664 
L 229.472337 -61.299126 
L 224.60248 -60.812588 
L 219.702397 -60.32605 
L 214.833199 -59.839511 
L 210.058841 -59.352973 
L 205.44323 -58.866435 
L 201.046838 -58.379897 
L 196.923318 -57.893359 
L 193.116574 -57.406821 
L 189.658631 -56.920283 
L 186.568522 -56.433745 
L 183.852228 -55.947207 
L 181.503596 -55.460669 
L 179.506018 -54.97413 
L 177.834626 -54.487592 
L 176.45872 -54.001054 
L 175.344183 -53.514516 
L 174.455675 -53.027978 
L 173.758478 -52.54144 
L 173.219906 -52.054902 
L 172.810278 -51.568364 
z
" style="stroke: #646464; stroke-width: 1.5"/>
    </defs>
    <g clip-path="url(#p8f5feaecad)">
     <use xlink:href="#m44f7e416d2" x="0" y="144" style="fill: #e98966; stroke: #646464; stroke-width: 1.5"/>
    </g>
   </g>
   <g id="PathCollection_1">
    <defs>
     <path id="me2094779dc" d="M 0 1.5 
C 0.397805 1.5 0.77937 1.341951 1.06066 1.06066 
C 1.341951 0.77937 1.5 0.397805 1.5 0 
C 1.5 -0.397805 1.341951 -0.77937 1.06066 -1.06066 
C 0.77937 -1.341951 0.397805 -1.5 0 -1.5 
C -0.397805 -1.5 -0.77937 -1.341951 -1.06066 -1.06066 
C -1.341951 -0.77937 -1.5 -0.397805 -1.5 0 
C -1.5 0.397805 -1.341951 0.77937 -1.06066 1.06066 
C -0.77937 1.341951 -0.397805 1.5 0 1.5 
z
" style="stroke: #646464"/>
    </defs>
    <g clip-path="url(#p8f5feaecad)">
     <use xlink:href="#me2094779dc" x="171.74" y="63.182505" style="fill: #646464; stroke: #646464"/>
     <use xlink:href="#me2094779dc" x="171.74" y="76.957159" style="fill: #646464; stroke: #646464"/>
     <use xlink:href="#me2094779dc" x="171.74" y="74.661383" style="fill: #646464; stroke: #646464"/>
     <use xlink:href="#me2094779dc" x="171.74" y="76.957159" style="fill: #646464; stroke: #646464"/>
     <use xlink:href="#me2094779dc" x="171.74" y="74.661383" style="fill: #646464; stroke: #646464"/>
     <use xlink:href="#me2094779dc" x="171.74" y="74.661383" style="fill: #646464; stroke: #646464"/>
     <use xlink:href="#me2094779dc" x="171.74" y="76.957159" style="fill: #646464; stroke: #646464"/>
     <use xlink:href="#me2094779dc" x="171.74" y="81.54871" style="fill: #646464; stroke: #646464"/>
     <use xlink:href="#me2094779dc" x="171.74" y="81.54871" style="fill: #646464; stroke: #646464"/>
     <use xlink:href="#me2094779dc" x="171.74" y="81.54871" style="fill: #646464; stroke: #646464"/>
     <use xlink:href="#me2094779dc" x="171.74" y="76.957159" style="fill: #646464; stroke: #646464"/>
     <use xlink:href="#me2094779dc" x="171.74" y="81.54871" style="fill: #646464; stroke: #646464"/>
     <use xlink:href="#me2094779dc" x="171.74" y="67.774056" style="fill: #646464; stroke: #646464"/>
     <use xlink:href="#me2094779dc" x="171.74" y="51.703626" style="fill: #646464; stroke: #646464"/>
     <use xlink:href="#me2094779dc" x="171.74" y="74.661383" style="fill: #646464; stroke: #646464"/>
     <use xlink:href="#me2094779dc" x="171.74" y="81.54871" style="fill: #646464; stroke: #646464"/>
     <use xlink:href="#me2094779dc" x="171.74" y="74.661383" style="fill: #646464; stroke: #646464"/>
     <use xlink:href="#me2094779dc" x="171.74" y="70.069832" style="fill: #646464; stroke: #646464"/>
     <use xlink:href="#me2094779dc" x="171.74" y="56.295178" style="fill: #646464; stroke: #646464"/>
     <use xlink:href="#me2094779dc" x="171.74" y="76.957159" style="fill: #646464; stroke: #646464"/>
     <use xlink:href="#me2094779dc" x="171.74" y="76.957159" style="fill: #646464; stroke: #646464"/>
     <use xlink:href="#me2094779dc" x="171.74" y="76.957159" style="fill: #646464; stroke: #646464"/>
     <use xlink:href="#me2094779dc" x="171.74" y="74.661383" style="fill: #646464; stroke: #646464"/>
     <use xlink:href="#me2094779dc" x="171.74" y="51.703626" style="fill: #646464; stroke: #646464"/>
     <use xlink:href="#me2094779dc" x="171.74" y="81.54871" style="fill: #646464; stroke: #646464"/>
     <use xlink:href="#me2094779dc" x="171.74" y="74.661383" style="fill: #646464; stroke: #646464"/>
     <use xlink:href="#me2094779dc" x="171.74" y="70.069832" style="fill: #646464; stroke: #646464"/>
     <use xlink:href="#me2094779dc" x="171.74" y="67.774056" style="fill: #646464; stroke: #646464"/>
     <use xlink:href="#me2094779dc" x="171.74" y="76.957159" style="fill: #646464; stroke: #646464"/>
     <use xlink:href="#me2094779dc" x="171.74" y="56.295178" style="fill: #646464; stroke: #646464"/>
     <use xlink:href="#me2094779dc" x="171.74" y="81.54871" style="fill: #646464; stroke: #646464"/>
     <use xlink:href="#me2094779dc" x="171.74" y="63.182505" style="fill: #646464; stroke: #646464"/>
     <use xlink:href="#me2094779dc" x="171.74" y="81.54871" style="fill: #646464; stroke: #646464"/>
     <use xlink:href="#me2094779dc" x="171.74" y="76.957159" style="fill: #646464; stroke: #646464"/>
     <use xlink:href="#me2094779dc" x="171.74" y="81.54871" style="fill: #646464; stroke: #646464"/>
     <use xlink:href="#me2094779dc" x="171.74" y="74.661383" style="fill: #646464; stroke: #646464"/>
     <use xlink:href="#me2094779dc" x="171.74" y="74.661383" style="fill: #646464; stroke: #646464"/>
     <use xlink:href="#me2094779dc" x="171.74" y="74.661383" style="fill: #646464; stroke: #646464"/>
     <use xlink:href="#me2094779dc" x="171.74" y="76.957159" style="fill: #646464; stroke: #646464"/>
     <use xlink:href="#me2094779dc" x="171.74" y="81.54871" style="fill: #646464; stroke: #646464"/>
     <use xlink:href="#me2094779dc" x="171.74" y="76.957159" style="fill: #646464; stroke: #646464"/>
     <use xlink:href="#me2094779dc" x="171.74" y="81.54871" style="fill: #646464; stroke: #646464"/>
     <use xlink:href="#me2094779dc" x="171.74" y="51.703626" style="fill: #646464; stroke: #646464"/>
     <use xlink:href="#me2094779dc" x="171.74" y="76.957159" style="fill: #646464; stroke: #646464"/>
     <use xlink:href="#me2094779dc" x="171.74" y="81.54871" style="fill: #646464; stroke: #646464"/>
     <use xlink:href="#me2094779dc" x="171.74" y="67.774056" style="fill: #646464; stroke: #646464"/>
     <use xlink:href="#me2094779dc" x="171.74" y="63.182505" style="fill: #646464; stroke: #646464"/>
     <use xlink:href="#me2094779dc" x="171.74" y="74.661383" style="fill: #646464; stroke: #646464"/>
     <use xlink:href="#me2094779dc" x="171.74" y="70.069832" style="fill: #646464; stroke: #646464"/>
     <use xlink:href="#me2094779dc" x="171.74" y="76.957159" style="fill: #646464; stroke: #646464"/>
     <use xlink:href="#me2094779dc" x="171.74" y="76.957159" style="fill: #646464; stroke: #646464"/>
     <use xlink:href="#me2094779dc" x="171.74" y="81.54871" style="fill: #646464; stroke: #646464"/>
     <use xlink:href="#me2094779dc" x="171.74" y="56.295178" style="fill: #646464; stroke: #646464"/>
     <use xlink:href="#me2094779dc" x="171.74" y="81.54871" style="fill: #646464; stroke: #646464"/>
     <use xlink:href="#me2094779dc" x="171.74" y="74.661383" style="fill: #646464; stroke: #646464"/>
     <use xlink:href="#me2094779dc" x="171.74" y="74.661383" style="fill: #646464; stroke: #646464"/>
     <use xlink:href="#me2094779dc" x="171.74" y="74.661383" style="fill: #646464; stroke: #646464"/>
     <use xlink:href="#me2094779dc" x="171.74" y="76.957159" style="fill: #646464; stroke: #646464"/>
     <use xlink:href="#me2094779dc" x="171.74" y="74.661383" style="fill: #646464; stroke: #646464"/>
     <use xlink:href="#me2094779dc" x="171.74" y="81.54871" style="fill: #646464; stroke: #646464"/>
     <use xlink:href="#me2094779dc" x="171.74" y="67.774056" style="fill: #646464; stroke: #646464"/>
     <use xlink:href="#me2094779dc" x="171.74" y="84.992374" style="fill: #646464; stroke: #646464"/>
     <use xlink:href="#me2094779dc" x="171.74" y="70.069832" style="fill: #646464; stroke: #646464"/>
     <use xlink:href="#me2094779dc" x="171.74" y="51.703626" style="fill: #646464; stroke: #646464"/>
     <use xlink:href="#me2094779dc" x="171.74" y="76.957159" style="fill: #646464; stroke: #646464"/>
     <use xlink:href="#me2094779dc" x="171.74" y="56.295178" style="fill: #646464; stroke: #646464"/>
     <use xlink:href="#me2094779dc" x="171.74" y="83.844486" style="fill: #646464; stroke: #646464"/>
     <use xlink:href="#me2094779dc" x="171.74" y="68.921944" style="fill: #646464; stroke: #646464"/>
     <use xlink:href="#me2094779dc" x="171.74" y="63.182505" style="fill: #646464; stroke: #646464"/>
     <use xlink:href="#me2094779dc" x="171.74" y="51.703626" style="fill: #646464; stroke: #646464"/>
     <use xlink:href="#me2094779dc" x="171.74" y="70.069832" style="fill: #646464; stroke: #646464"/>
     <use xlink:href="#me2094779dc" x="171.74" y="67.774056" style="fill: #646464; stroke: #646464"/>
     <use xlink:href="#me2094779dc" x="171.74" y="66.626168" style="fill: #646464; stroke: #646464"/>
     <use xlink:href="#me2094779dc" x="171.74" y="71.21772" style="fill: #646464; stroke: #646464"/>
    </g>
   </g>
   <g id="matplotlib.axis_1">
    <g id="xtick_1">
     <g id="line2d_1">
      <defs>
       <path id="m75d61870e3" d="M 0 0 
L 0 3.5 
" style="stroke: #000000; stroke-width: 0.8"/>
      </defs>
      <g>
       <use xlink:href="#m75d61870e3" x="171.74" y="94.84" style="stroke: #000000; stroke-width: 0.8"/>
      </g>
     </g>
     <g id="text_1">
      <!-- 0 -->
      <g transform="translate(167.847344 111.860938) scale(0.14 -0.14)">
       <defs>
        <path id="ArialMT-30" d="M 266 2259 
Q 266 3072 433 3567 
Q 600 4063 929 4331 
Q 1259 4600 1759 4600 
Q 2128 4600 2406 4451 
Q 2684 4303 2865 4023 
Q 3047 3744 3150 3342 
Q 3253 2941 3253 2259 
Q 3253 1453 3087 958 
Q 2922 463 2592 192 
Q 2263 -78 1759 -78 
Q 1097 -78 719 397 
Q 266 969 266 2259 
z
M 844 2259 
Q 844 1131 1108 757 
Q 1372 384 1759 384 
Q 2147 384 2411 759 
Q 2675 1134 2675 2259 
Q 2675 3391 2411 3762 
Q 2147 4134 1753 4134 
Q 1366 4134 1134 3806 
Q 844 3388 844 2259 
z
" transform="scale(0.015625)"/>
       </defs>
       <use xlink:href="#ArialMT-30"/>
      </g>
     </g>
    </g>
    <g id="text_2">
     <!-- UST -->
     <g transform="translate(155.74 130.095937) scale(0.16 -0.16)">
      <defs>
       <path id="ArialMT-55" d="M 3500 4581 
L 4106 4581 
L 4106 1934 
Q 4106 1244 3950 837 
Q 3794 431 3386 176 
Q 2978 -78 2316 -78 
Q 1672 -78 1262 144 
Q 853 366 678 786 
Q 503 1206 503 1934 
L 503 4581 
L 1109 4581 
L 1109 1938 
Q 1109 1341 1220 1058 
Q 1331 775 1601 622 
Q 1872 469 2263 469 
Q 2931 469 3215 772 
Q 3500 1075 3500 1938 
L 3500 4581 
z
" transform="scale(0.015625)"/>
       <path id="ArialMT-53" d="M 288 1472 
L 859 1522 
Q 900 1178 1048 958 
Q 1197 738 1509 602 
Q 1822 466 2213 466 
Q 2559 466 2825 569 
Q 3091 672 3220 851 
Q 3350 1031 3350 1244 
Q 3350 1459 3225 1620 
Q 3100 1781 2813 1891 
Q 2628 1963 1997 2114 
Q 1366 2266 1113 2400 
Q 784 2572 623 2826 
Q 463 3081 463 3397 
Q 463 3744 659 4045 
Q 856 4347 1234 4503 
Q 1613 4659 2075 4659 
Q 2584 4659 2973 4495 
Q 3363 4331 3572 4012 
Q 3781 3694 3797 3291 
L 3216 3247 
Q 3169 3681 2898 3903 
Q 2628 4125 2100 4125 
Q 1550 4125 1298 3923 
Q 1047 3722 1047 3438 
Q 1047 3191 1225 3031 
Q 1400 2872 2139 2705 
Q 2878 2538 3153 2413 
Q 3553 2228 3743 1945 
Q 3934 1663 3934 1294 
Q 3934 928 3725 604 
Q 3516 281 3123 101 
Q 2731 -78 2241 -78 
Q 1619 -78 1198 103 
Q 778 284 539 648 
Q 300 1013 288 1472 
z
" transform="scale(0.015625)"/>
       <path id="ArialMT-54" d="M 1659 0 
L 1659 4041 
L 150 4041 
L 150 4581 
L 3781 4581 
L 3781 4041 
L 2266 4041 
L 2266 0 
L 1659 0 
z
" transform="scale(0.015625)"/>
      </defs>
      <use xlink:href="#ArialMT-55"/>
      <use xlink:href="#ArialMT-53" x="72.216797"/>
      <use xlink:href="#ArialMT-54" x="138.916016"/>
     </g>
    </g>
   </g>
   <g id="matplotlib.axis_2">
    <g id="ytick_1">
     <g id="line2d_2">
      <defs>
       <path id="mecf992a03a" d="M 0 0 
L -3.5 0 
" style="stroke: #000000; stroke-width: 0.8"/>
      </defs>
      <g>
       <use xlink:href="#mecf992a03a" x="51.68" y="86.140261" style="stroke: #000000; stroke-width: 0.8"/>
      </g>
     </g>
     <g id="text_3">
      <!-- 0 -->
      <g transform="translate(36.894688 91.15073) scale(0.14 -0.14)">
       <use xlink:href="#ArialMT-30"/>
      </g>
     </g>
    </g>
    <g id="ytick_2">
     <g id="line2d_3">
      <g>
       <use xlink:href="#mecf992a03a" x="51.68" y="57.443066" style="stroke: #000000; stroke-width: 0.8"/>
      </g>
     </g>
     <g id="text_4">
      <!-- 25 -->
      <g transform="translate(29.109375 62.453534) scale(0.14 -0.14)">
       <defs>
        <path id="ArialMT-32" d="M 3222 541 
L 3222 0 
L 194 0 
Q 188 203 259 391 
Q 375 700 629 1000 
Q 884 1300 1366 1694 
Q 2113 2306 2375 2664 
Q 2638 3022 2638 3341 
Q 2638 3675 2398 3904 
Q 2159 4134 1775 4134 
Q 1369 4134 1125 3890 
Q 881 3647 878 3216 
L 300 3275 
Q 359 3922 746 4261 
Q 1134 4600 1788 4600 
Q 2447 4600 2831 4234 
Q 3216 3869 3216 3328 
Q 3216 3053 3103 2787 
Q 2991 2522 2730 2228 
Q 2469 1934 1863 1422 
Q 1356 997 1212 845 
Q 1069 694 975 541 
L 3222 541 
z
" transform="scale(0.015625)"/>
        <path id="ArialMT-35" d="M 266 1200 
L 856 1250 
Q 922 819 1161 601 
Q 1400 384 1738 384 
Q 2144 384 2425 690 
Q 2706 997 2706 1503 
Q 2706 1984 2436 2262 
Q 2166 2541 1728 2541 
Q 1456 2541 1237 2417 
Q 1019 2294 894 2097 
L 366 2166 
L 809 4519 
L 3088 4519 
L 3088 3981 
L 1259 3981 
L 1013 2750 
Q 1425 3038 1878 3038 
Q 2478 3038 2890 2622 
Q 3303 2206 3303 1553 
Q 3303 931 2941 478 
Q 2500 -78 1738 -78 
Q 1113 -78 717 272 
Q 322 622 266 1200 
z
" transform="scale(0.015625)"/>
       </defs>
       <use xlink:href="#ArialMT-32"/>
       <use xlink:href="#ArialMT-35" x="55.615234"/>
      </g>
     </g>
    </g>
    <g id="text_5">
     <!-- min -->
     <g transform="translate(21.929375 81.238) rotate(-90) scale(0.16 -0.16)">
      <defs>
       <path id="ArialMT-6d" d="M 422 0 
L 422 3319 
L 925 3319 
L 925 2853 
Q 1081 3097 1340 3245 
Q 1600 3394 1931 3394 
Q 2300 3394 2536 3241 
Q 2772 3088 2869 2813 
Q 3263 3394 3894 3394 
Q 4388 3394 4653 3120 
Q 4919 2847 4919 2278 
L 4919 0 
L 4359 0 
L 4359 2091 
Q 4359 2428 4304 2576 
Q 4250 2725 4106 2815 
Q 3963 2906 3769 2906 
Q 3419 2906 3187 2673 
Q 2956 2441 2956 1928 
L 2956 0 
L 2394 0 
L 2394 2156 
Q 2394 2531 2256 2718 
Q 2119 2906 1806 2906 
Q 1569 2906 1367 2781 
Q 1166 2656 1075 2415 
Q 984 2175 984 1722 
L 984 0 
L 422 0 
z
" transform="scale(0.015625)"/>
       <path id="ArialMT-69" d="M 425 3934 
L 425 4581 
L 988 4581 
L 988 3934 
L 425 3934 
z
M 425 0 
L 425 3319 
L 988 3319 
L 988 0 
L 425 0 
z
" transform="scale(0.015625)"/>
       <path id="ArialMT-6e" d="M 422 0 
L 422 3319 
L 928 3319 
L 928 2847 
Q 1294 3394 1984 3394 
Q 2284 3394 2536 3286 
Q 2788 3178 2913 3003 
Q 3038 2828 3088 2588 
Q 3119 2431 3119 2041 
L 3119 0 
L 2556 0 
L 2556 2019 
Q 2556 2363 2490 2533 
Q 2425 2703 2258 2804 
Q 2091 2906 1866 2906 
Q 1506 2906 1245 2678 
Q 984 2450 984 1813 
L 984 0 
L 422 0 
z
" transform="scale(0.015625)"/>
      </defs>
      <use xlink:href="#ArialMT-6d"/>
      <use xlink:href="#ArialMT-69" x="83.300781"/>
      <use xlink:href="#ArialMT-6e" x="105.517578"/>
     </g>
    </g>
   </g>
   <g id="patch_3">
    <path d="M 51.68 94.84 
L 51.68 41.856 
" style="fill: none; stroke: #000000; stroke-width: 0.8; stroke-linejoin: miter; stroke-linecap: square"/>
   </g>
   <g id="patch_4">
    <path d="M 291.8 94.84 
L 291.8 41.856 
" style="fill: none; stroke: #000000; stroke-width: 0.8; stroke-linejoin: miter; stroke-linecap: square"/>
   </g>
   <g id="patch_5">
    <path d="M 51.68 94.84 
L 291.8 94.84 
" style="fill: none; stroke: #000000; stroke-width: 0.8; stroke-linejoin: miter; stroke-linecap: square"/>
   </g>
   <g id="patch_6">
    <path d="M 51.68 41.856 
L 291.8 41.856 
" style="fill: none; stroke: #000000; stroke-width: 0.8; stroke-linejoin: miter; stroke-linecap: square"/>
   </g>
   <g id="text_6">
    <!-- Violin plot -->
    <g transform="translate(141.512031 21.048375) scale(0.14 -0.14)">
     <defs>
      <path id="ArialMT-56" d="M 1803 0 
L 28 4581 
L 684 4581 
L 1875 1253 
Q 2019 853 2116 503 
Q 2222 878 2363 1253 
L 3600 4581 
L 4219 4581 
L 2425 0 
L 1803 0 
z
" transform="scale(0.015625)"/>
      <path id="ArialMT-6f" d="M 213 1659 
Q 213 2581 725 3025 
Q 1153 3394 1769 3394 
Q 2453 3394 2887 2945 
Q 3322 2497 3322 1706 
Q 3322 1066 3130 698 
Q 2938 331 2570 128 
Q 2203 -75 1769 -75 
Q 1072 -75 642 372 
Q 213 819 213 1659 
z
M 791 1659 
Q 791 1022 1069 705 
Q 1347 388 1769 388 
Q 2188 388 2466 706 
Q 2744 1025 2744 1678 
Q 2744 2294 2464 2611 
Q 2184 2928 1769 2928 
Q 1347 2928 1069 2612 
Q 791 2297 791 1659 
z
" transform="scale(0.015625)"/>
      <path id="ArialMT-6c" d="M 409 0 
L 409 4581 
L 972 4581 
L 972 0 
L 409 0 
z
" transform="scale(0.015625)"/>
      <path id="ArialMT-20" transform="scale(0.015625)"/>
      <path id="ArialMT-70" d="M 422 -1272 
L 422 3319 
L 934 3319 
L 934 2888 
Q 1116 3141 1344 3267 
Q 1572 3394 1897 3394 
Q 2322 3394 2647 3175 
Q 2972 2956 3137 2557 
Q 3303 2159 3303 1684 
Q 3303 1175 3120 767 
Q 2938 359 2589 142 
Q 2241 -75 1856 -75 
Q 1575 -75 1351 44 
Q 1128 163 984 344 
L 984 -1272 
L 422 -1272 
z
M 931 1641 
Q 931 1000 1190 694 
Q 1450 388 1819 388 
Q 2194 388 2461 705 
Q 2728 1022 2728 1688 
Q 2728 2322 2467 2637 
Q 2206 2953 1844 2953 
Q 1484 2953 1207 2617 
Q 931 2281 931 1641 
z
" transform="scale(0.015625)"/>
      <path id="ArialMT-74" d="M 1650 503 
L 1731 6 
Q 1494 -44 1306 -44 
Q 1000 -44 831 53 
Q 663 150 594 308 
Q 525 466 525 972 
L 525 2881 
L 113 2881 
L 113 3319 
L 525 3319 
L 525 4141 
L 1084 4478 
L 1084 3319 
L 1650 3319 
L 1650 2881 
L 1084 2881 
L 1084 941 
Q 1084 700 1114 631 
Q 1144 563 1211 522 
Q 1278 481 1403 481 
Q 1497 481 1650 503 
z
" transform="scale(0.015625)"/>
     </defs>
     <use xlink:href="#ArialMT-56"/>
     <use xlink:href="#ArialMT-69" x="64.949219"/>
     <use xlink:href="#ArialMT-6f" x="87.166016"/>
     <use xlink:href="#ArialMT-6c" x="142.78125"/>
     <use xlink:href="#ArialMT-69" x="164.998047"/>
     <use xlink:href="#ArialMT-6e" x="187.214844"/>
     <use xlink:href="#ArialMT-20" x="242.830078"/>
     <use xlink:href="#ArialMT-70" x="270.613281"/>
     <use xlink:href="#ArialMT-6c" x="326.228516"/>
     <use xlink:href="#ArialMT-6f" x="348.445312"/>
     <use xlink:href="#ArialMT-74" x="404.060547"/>
    </g>
    <!-- Min: 1.00, Max: 30.00 -->
    <g transform="translate(104.431719 35.856) scale(0.14 -0.14)">
     <defs>
      <path id="ArialMT-4d" d="M 475 0 
L 475 4581 
L 1388 4581 
L 2472 1338 
Q 2622 884 2691 659 
Q 2769 909 2934 1394 
L 4031 4581 
L 4847 4581 
L 4847 0 
L 4263 0 
L 4263 3834 
L 2931 0 
L 2384 0 
L 1059 3900 
L 1059 0 
L 475 0 
z
" transform="scale(0.015625)"/>
      <path id="ArialMT-3a" d="M 578 2678 
L 578 3319 
L 1219 3319 
L 1219 2678 
L 578 2678 
z
M 578 0 
L 578 641 
L 1219 641 
L 1219 0 
L 578 0 
z
" transform="scale(0.015625)"/>
      <path id="ArialMT-31" d="M 2384 0 
L 1822 0 
L 1822 3584 
Q 1619 3391 1289 3197 
Q 959 3003 697 2906 
L 697 3450 
Q 1169 3672 1522 3987 
Q 1875 4303 2022 4600 
L 2384 4600 
L 2384 0 
z
" transform="scale(0.015625)"/>
      <path id="ArialMT-2e" d="M 581 0 
L 581 641 
L 1222 641 
L 1222 0 
L 581 0 
z
" transform="scale(0.015625)"/>
      <path id="ArialMT-2c" d="M 569 0 
L 569 641 
L 1209 641 
L 1209 0 
Q 1209 -353 1084 -570 
Q 959 -788 688 -906 
L 531 -666 
Q 709 -588 793 -436 
Q 878 -284 888 0 
L 569 0 
z
" transform="scale(0.015625)"/>
      <path id="ArialMT-61" d="M 2588 409 
Q 2275 144 1986 34 
Q 1697 -75 1366 -75 
Q 819 -75 525 192 
Q 231 459 231 875 
Q 231 1119 342 1320 
Q 453 1522 633 1644 
Q 813 1766 1038 1828 
Q 1203 1872 1538 1913 
Q 2219 1994 2541 2106 
Q 2544 2222 2544 2253 
Q 2544 2597 2384 2738 
Q 2169 2928 1744 2928 
Q 1347 2928 1158 2789 
Q 969 2650 878 2297 
L 328 2372 
Q 403 2725 575 2942 
Q 747 3159 1072 3276 
Q 1397 3394 1825 3394 
Q 2250 3394 2515 3294 
Q 2781 3194 2906 3042 
Q 3031 2891 3081 2659 
Q 3109 2516 3109 2141 
L 3109 1391 
Q 3109 606 3145 398 
Q 3181 191 3288 0 
L 2700 0 
Q 2613 175 2588 409 
z
M 2541 1666 
Q 2234 1541 1622 1453 
Q 1275 1403 1131 1340 
Q 988 1278 909 1158 
Q 831 1038 831 891 
Q 831 666 1001 516 
Q 1172 366 1500 366 
Q 1825 366 2078 508 
Q 2331 650 2450 897 
Q 2541 1088 2541 1459 
L 2541 1666 
z
" transform="scale(0.015625)"/>
      <path id="ArialMT-78" d="M 47 0 
L 1259 1725 
L 138 3319 
L 841 3319 
L 1350 2541 
Q 1494 2319 1581 2169 
Q 1719 2375 1834 2534 
L 2394 3319 
L 3066 3319 
L 1919 1756 
L 3153 0 
L 2463 0 
L 1781 1031 
L 1600 1309 
L 728 0 
L 47 0 
z
" transform="scale(0.015625)"/>
      <path id="ArialMT-33" d="M 269 1209 
L 831 1284 
Q 928 806 1161 595 
Q 1394 384 1728 384 
Q 2125 384 2398 659 
Q 2672 934 2672 1341 
Q 2672 1728 2419 1979 
Q 2166 2231 1775 2231 
Q 1616 2231 1378 2169 
L 1441 2663 
Q 1497 2656 1531 2656 
Q 1891 2656 2178 2843 
Q 2466 3031 2466 3422 
Q 2466 3731 2256 3934 
Q 2047 4138 1716 4138 
Q 1388 4138 1169 3931 
Q 950 3725 888 3313 
L 325 3413 
Q 428 3978 793 4289 
Q 1159 4600 1703 4600 
Q 2078 4600 2393 4439 
Q 2709 4278 2876 4000 
Q 3044 3722 3044 3409 
Q 3044 3113 2884 2869 
Q 2725 2625 2413 2481 
Q 2819 2388 3044 2092 
Q 3269 1797 3269 1353 
Q 3269 753 2831 336 
Q 2394 -81 1725 -81 
Q 1122 -81 723 278 
Q 325 638 269 1209 
z
" transform="scale(0.015625)"/>
     </defs>
     <use xlink:href="#ArialMT-4d"/>
     <use xlink:href="#ArialMT-69" x="83.300781"/>
     <use xlink:href="#ArialMT-6e" x="105.517578"/>
     <use xlink:href="#ArialMT-3a" x="161.132812"/>
     <use xlink:href="#ArialMT-20" x="188.916016"/>
     <use xlink:href="#ArialMT-31" x="216.699219"/>
     <use xlink:href="#ArialMT-2e" x="272.314453"/>
     <use xlink:href="#ArialMT-30" x="300.097656"/>
     <use xlink:href="#ArialMT-30" x="355.712891"/>
     <use xlink:href="#ArialMT-2c" x="411.328125"/>
     <use xlink:href="#ArialMT-20" x="439.111328"/>
     <use xlink:href="#ArialMT-4d" x="466.894531"/>
     <use xlink:href="#ArialMT-61" x="550.195312"/>
     <use xlink:href="#ArialMT-78" x="605.810547"/>
     <use xlink:href="#ArialMT-3a" x="655.810547"/>
     <use xlink:href="#ArialMT-20" x="683.59375"/>
     <use xlink:href="#ArialMT-33" x="711.376953"/>
     <use xlink:href="#ArialMT-30" x="766.992188"/>
     <use xlink:href="#ArialMT-2e" x="822.607422"/>
     <use xlink:href="#ArialMT-30" x="850.390625"/>
     <use xlink:href="#ArialMT-30" x="906.005859"/>
    </g>
   </g>
  </g>
  <g id="axes_2">
   <g id="patch_7">
    <path d="M 325.08 94.84 
L 565.2 94.84 
L 565.2 41.856 
L 325.08 41.856 
z
" style="fill: #ffffff"/>
   </g>
   <g id="matplotlib.axis_3">
    <g id="xtick_2">
     <g id="line2d_4">
      <g>
       <use xlink:href="#m75d61870e3" x="445.14" y="94.84" style="stroke: #000000; stroke-width: 0.8"/>
      </g>
     </g>
     <g id="text_7">
      <!-- 1 -->
      <g transform="translate(441.247344 111.860938) scale(0.14 -0.14)">
       <use xlink:href="#ArialMT-31"/>
      </g>
     </g>
    </g>
    <g id="text_8">
     <!-- UST -->
     <g transform="translate(429.14 130.095937) scale(0.16 -0.16)">
      <use xlink:href="#ArialMT-55"/>
      <use xlink:href="#ArialMT-53" x="72.216797"/>
      <use xlink:href="#ArialMT-54" x="138.916016"/>
     </g>
    </g>
   </g>
   <g id="matplotlib.axis_4">
    <g id="ytick_3">
     <g id="line2d_5">
      <g>
       <use xlink:href="#mecf992a03a" x="325.08" y="94.092577" style="stroke: #000000; stroke-width: 0.8"/>
      </g>
     </g>
     <g id="text_9">
      <!-- 0 -->
      <g transform="translate(310.294688 99.103046) scale(0.14 -0.14)">
       <use xlink:href="#ArialMT-30"/>
      </g>
     </g>
    </g>
    <g id="ytick_4">
     <g id="line2d_6">
      <g>
       <use xlink:href="#mecf992a03a" x="325.08" y="52.569066" style="stroke: #000000; stroke-width: 0.8"/>
      </g>
     </g>
     <g id="text_10">
      <!-- 25 -->
      <g transform="translate(302.509375 57.579535) scale(0.14 -0.14)">
       <use xlink:href="#ArialMT-32"/>
       <use xlink:href="#ArialMT-35" x="55.615234"/>
      </g>
     </g>
    </g>
   </g>
   <g id="line2d_7">
    <path d="M 427.131 80.805053 
L 463.149 80.805053 
L 463.149 67.932765 
L 427.131 67.932765 
L 427.131 80.805053 
" clip-path="url(#p5015fcfcc5)" style="fill: none; stroke: #ff7f50; stroke-linecap: square"/>
   </g>
   <g id="line2d_8">
    <path d="M 445.14 80.805053 
L 445.14 92.431636 
" clip-path="url(#p5015fcfcc5)" style="fill: none; stroke: #ff7f50; stroke-linecap: square"/>
   </g>
   <g id="line2d_9">
    <path d="M 445.14 67.932765 
L 445.14 50.908125 
" clip-path="url(#p5015fcfcc5)" style="fill: none; stroke: #ff7f50; stroke-linecap: square"/>
   </g>
   <g id="line2d_10">
    <path d="M 436.1355 92.431636 
L 454.1445 92.431636 
" clip-path="url(#p5015fcfcc5)" style="fill: none; stroke: #ff7f50; stroke-linecap: square"/>
   </g>
   <g id="line2d_11">
    <path d="M 436.1355 50.908125 
L 454.1445 50.908125 
" clip-path="url(#p5015fcfcc5)" style="fill: none; stroke: #ff7f50; stroke-linecap: square"/>
   </g>
   <g id="line2d_12">
    <defs>
     <path id="m2b97f246c6" d="M 0 3 
C 0.795609 3 1.55874 2.683901 2.12132 2.12132 
C 2.683901 1.55874 3 0.795609 3 0 
C 3 -0.795609 2.683901 -1.55874 2.12132 -2.12132 
C 1.55874 -2.683901 0.795609 -3 0 -3 
C -0.795609 -3 -1.55874 -2.683901 -2.12132 -2.12132 
C -2.683901 -1.55874 -3 -0.795609 -3 0 
C -3 0.795609 -2.683901 1.55874 -2.12132 2.12132 
C -1.55874 2.683901 -0.795609 3 0 3 
z
" style="stroke: #000000"/>
    </defs>
    <g clip-path="url(#p5015fcfcc5)">
     <use xlink:href="#m2b97f246c6" x="445.14" y="44.264364" style="fill-opacity: 0; stroke: #000000"/>
     <use xlink:href="#m2b97f246c6" x="445.14" y="44.264364" style="fill-opacity: 0; stroke: #000000"/>
     <use xlink:href="#m2b97f246c6" x="445.14" y="44.264364" style="fill-opacity: 0; stroke: #000000"/>
     <use xlink:href="#m2b97f246c6" x="445.14" y="44.264364" style="fill-opacity: 0; stroke: #000000"/>
     <use xlink:href="#m2b97f246c6" x="445.14" y="44.264364" style="fill-opacity: 0; stroke: #000000"/>
    </g>
   </g>
   <g id="line2d_13">
    <path d="M 427.131 77.483172 
L 463.149 77.483172 
" clip-path="url(#p5015fcfcc5)" style="fill: none; stroke: #ff7f0e; stroke-linecap: square"/>
   </g>
   <g id="patch_8">
    <path d="M 325.08 94.84 
L 325.08 41.856 
" style="fill: none; stroke: #000000; stroke-width: 0.8; stroke-linejoin: miter; stroke-linecap: square"/>
   </g>
   <g id="patch_9">
    <path d="M 565.2 94.84 
L 565.2 41.856 
" style="fill: none; stroke: #000000; stroke-width: 0.8; stroke-linejoin: miter; stroke-linecap: square"/>
   </g>
   <g id="patch_10">
    <path d="M 325.08 94.84 
L 565.2 94.84 
" style="fill: none; stroke: #000000; stroke-width: 0.8; stroke-linejoin: miter; stroke-linecap: square"/>
   </g>
   <g id="patch_11">
    <path d="M 325.08 41.856 
L 565.2 41.856 
" style="fill: none; stroke: #000000; stroke-width: 0.8; stroke-linejoin: miter; stroke-linecap: square"/>
   </g>
   <g id="text_11">
    <!-- Boxplot -->
    <g transform="translate(421.792812 21.048375) scale(0.14 -0.14)">
     <defs>
      <path id="ArialMT-42" d="M 469 0 
L 469 4581 
L 2188 4581 
Q 2713 4581 3030 4442 
Q 3347 4303 3526 4014 
Q 3706 3725 3706 3409 
Q 3706 3116 3547 2856 
Q 3388 2597 3066 2438 
Q 3481 2316 3704 2022 
Q 3928 1728 3928 1328 
Q 3928 1006 3792 729 
Q 3656 453 3456 303 
Q 3256 153 2954 76 
Q 2653 0 2216 0 
L 469 0 
z
M 1075 2656 
L 2066 2656 
Q 2469 2656 2644 2709 
Q 2875 2778 2992 2937 
Q 3109 3097 3109 3338 
Q 3109 3566 3000 3739 
Q 2891 3913 2687 3977 
Q 2484 4041 1991 4041 
L 1075 4041 
L 1075 2656 
z
M 1075 541 
L 2216 541 
Q 2509 541 2628 563 
Q 2838 600 2978 687 
Q 3119 775 3209 942 
Q 3300 1109 3300 1328 
Q 3300 1584 3169 1773 
Q 3038 1963 2805 2039 
Q 2572 2116 2134 2116 
L 1075 2116 
L 1075 541 
z
" transform="scale(0.015625)"/>
     </defs>
     <use xlink:href="#ArialMT-42"/>
     <use xlink:href="#ArialMT-6f" x="66.699219"/>
     <use xlink:href="#ArialMT-78" x="122.314453"/>
     <use xlink:href="#ArialMT-70" x="172.314453"/>
     <use xlink:href="#ArialMT-6c" x="227.929688"/>
     <use xlink:href="#ArialMT-6f" x="250.146484"/>
     <use xlink:href="#ArialMT-74" x="305.761719"/>
    </g>
    <!-- Min: 1.00, Max: 30.00 -->
    <g transform="translate(377.831719 35.856) scale(0.14 -0.14)">
     <use xlink:href="#ArialMT-4d"/>
     <use xlink:href="#ArialMT-69" x="83.300781"/>
     <use xlink:href="#ArialMT-6e" x="105.517578"/>
     <use xlink:href="#ArialMT-3a" x="161.132812"/>
     <use xlink:href="#ArialMT-20" x="188.916016"/>
     <use xlink:href="#ArialMT-31" x="216.699219"/>
     <use xlink:href="#ArialMT-2e" x="272.314453"/>
     <use xlink:href="#ArialMT-30" x="300.097656"/>
     <use xlink:href="#ArialMT-30" x="355.712891"/>
     <use xlink:href="#ArialMT-2c" x="411.328125"/>
     <use xlink:href="#ArialMT-20" x="439.111328"/>
     <use xlink:href="#ArialMT-4d" x="466.894531"/>
     <use xlink:href="#ArialMT-61" x="550.195312"/>
     <use xlink:href="#ArialMT-78" x="605.810547"/>
     <use xlink:href="#ArialMT-3a" x="655.810547"/>
     <use xlink:href="#ArialMT-20" x="683.59375"/>
     <use xlink:href="#ArialMT-33" x="711.376953"/>
     <use xlink:href="#ArialMT-30" x="766.992188"/>
     <use xlink:href="#ArialMT-2e" x="822.607422"/>
     <use xlink:href="#ArialMT-30" x="850.390625"/>
     <use xlink:href="#ArialMT-30" x="906.005859"/>
    </g>
   </g>
  </g>
 </g>
 <defs>
  <clipPath id="p8f5feaecad">
   <rect x="51.68" y="41.856" width="240.12" height="52.984"/>
  </clipPath>
  <clipPath id="p5015fcfcc5">
   <rect x="325.08" y="41.856" width="240.12" height="52.984"/>
  </clipPath>
 </defs>
</svg>
